<?xml version="1.0" encoding="utf-8"?>
<!-- Generator: Adobe Illustrator 24.0.2, SVG Export Plug-In . SVG Version: 6.00 Build 0)  -->
<svg version="1.1" xmlns="http://www.w3.org/2000/svg" xmlns:xlink="http://www.w3.org/1999/xlink" x="0px" y="0px"
	 viewBox="0 0 500 500" style="enable-background:new 0 0 500 500;" xml:space="preserve">
<style type="text/css">
	.st0{fill:#F0F0F0;}
	.st1{fill:#E0E0E0;}
	.st2{fill:#27DEBF;}
	.st3{opacity:0.6;}
	.st4{opacity:0.3;}
	.st5{opacity:0.5;}
	.st6{fill:#263238;}
	.st7{opacity:0.7;}
	.st8{opacity:0.4;fill:#FFFFFF;}
	.st9{opacity:0.1;}
	.st10{fill:#FAFAFA;}
	.st11{fill:#FFFFFF;}
	.st12{fill:#E6E6E6;}
	.st13{opacity:0.5;fill:#455A64;}
	.st14{fill:none;stroke:#E0E0E0;stroke-width:0.75;stroke-miterlimit:10;}
	.st15{fill:#455A64;}
	.st16{opacity:0.7;fill:#FFFFFF;}
	.st17{fill:#F5F5F5;}
	.st18{fill:#EBEBEB;}
	.st19{opacity:0.2;}
	.st20{display:none;}
	.st21{display:inline;}
	.st22{fill:#FFA8A7;}
	.st23{fill:#F28F8F;}
	.st24{opacity:0.2;fill:#FFFFFF;}
	.st25{fill:#B16668;}
	.st26{fill:#37474F;}
	.st27{fill:#9A4A4D;}
	.st28{opacity:0.15;}
	.st29{display:none;fill:#F5F0EB;}
	.st30{fill:#FABBB8;}
	.st31{fill:#EA8749;}
	.st32{fill:#66437F;}
	.st33{fill:#76558E;}
	.st34{fill:#F0A7A4;}
	.st35{fill:none;stroke:#1C0E0E;stroke-width:0.7451;stroke-linecap:round;stroke-linejoin:round;stroke-miterlimit:10;}
	.st36{fill:#38332F;}
	.st37{fill:#121E35;}
	.st38{display:inline;fill:#D18370;}
	.st39{font-family:'ComicNeue-Bold';}
	.st40{font-size:18.7256px;}
	.st41{fill:none;stroke:#C68175;stroke-width:0.5;stroke-miterlimit:10;}
</style>
<g id="Floor">
	<ellipse id="Floor_8_" class="st0" cx="250.2" cy="347" rx="235.6" ry="136"/>
</g>
<g id="Shadows">
	<path id="Shadow_3_" class="st1" d="M71.2,395.4l-40.6-23.5c-2.3-1.3-2.3-3.5,0-4.8L267,230.7c2.3-1.3,6-1.3,8.3,0l40.6,23.5
		c2.3,1.3,2.3,3.5,0,4.8L79.5,395.4C77.2,396.7,73.5,396.7,71.2,395.4z"/>
	<polygon id="Shadow" class="st1" points="245.9,405.1 148.3,348.8 270.3,278.5 367.8,334.8 	"/>
	<ellipse id="Shadow_9_" class="st1" cx="380.7" cy="403.6" rx="46.1" ry="26.6"/>
	<path id="Shadow_10_" class="st1" d="M442.6,371.5c5,2.9,5,7.6,0,10.5c-5,2.9-13.1,2.9-18.1,0c-5-2.9-5-7.6,0-10.5
		C429.5,368.6,437.6,368.6,442.6,371.5z"/>
</g>
<g id="Device">
	<g id="Device_1_">
		<g id="XMLID_1341_">
			<g id="XMLID_1346_">
				<path id="XMLID_1347_" class="st2" d="M217.3,353.6l34.9-20.2c3.6-2.1,5.4-4.8,5.4-7.5c0-2.7,0-4.9,0-4.9l-36.2-20.4
					c-1.9-1.1-3.5-3.8-3.5-6v-43.1l-61,35.3l0,43.1c0,2.2,1.6,4.9,3.5,6l30.8,17.8C198.4,357.8,210.1,357.8,217.3,353.6z"/>
			</g>
			<g id="XMLID_1608_" class="st3">
				<path id="XMLID_1609_" d="M217.3,353.6l34.9-20.2c3.6-2.1,5.4-4.8,5.4-7.5c0-2.7,0-4.9,0-4.9l-36.2-20.4c-1.9-1.1-3.5-3.8-3.5-6
					v-43.1l-61,35.3l0,43.1c0,2.2,1.6,4.9,3.5,6l30.8,17.8C198.4,357.8,210.1,357.8,217.3,353.6z"/>
			</g>
			<path id="XMLID_1345_" class="st4" d="M171.6,337.4v4.8l-11.2-6.4c-1.9-1.1-3.5-3.8-3.5-6v-43.1l11.6-6.7c0.2,3,0.5,6,0.7,9
				l-8.2,4.7v33.7c0,2.2,1.5,4.9,3.5,6L171.6,337.4z"/>
			<path id="XMLID_1344_" class="st2" d="M161.1,327.4c0,2.2,1.6,4.9,3.5,6l26.6,15.3c7.2,4.2,18.9,4.2,26.1,0l35-20.2
				c7.2-4.2,7.2-10.9,0-15.1l-26.6-15.3c-1.9-1.1-3.5-3.8-3.5-6l0-33.7l-61,35.3V327.4z"/>
			<path id="XMLID_1607_" class="st4" d="M161.1,327.4c0,2.2,1.6,4.9,3.5,6l26.6,15.3c7.2,4.2,18.9,4.2,26.1,0l35-20.2
				c7.2-4.2,7.2-10.9,0-15.1l-26.6-15.3c-1.9-1.1-3.5-3.8-3.5-6l0-33.7l-61,35.3V327.4z"/>
			<path id="XMLID_1343_" class="st5" d="M232.7,302.2L232.7,302.2l-7.1-4.1c-1.9-1.1-3.5-3.8-3.5-6l0-33.7l-61,35.3v33.7
				c0,2.2,1.6,4.9,3.5,6l7,4L232.7,302.2z"/>
			<path id="XMLID_1342_" class="st2" d="M257.7,321c0,0,0,2.1,0,4.9c0,2.7-1.8,5.4-5.4,7.5l-34.9,20.2c-3.5,2-7.9,3-12.4,3.1v-4.8
				c4.5-0.1,9-1.1,12.4-3.1l34.9-20.2C255.9,326.5,257.7,323.7,257.7,321z"/>
			<path id="XMLID_1610_" class="st5" d="M257.7,321c0,0,0,2.1,0,4.9c0,2.7-1.8,5.4-5.4,7.5l-34.9,20.2c-3.5,2-7.9,3-12.4,3.1v-4.8
				c4.5-0.1,9-1.1,12.4-3.1l34.9-20.2C255.9,326.5,257.7,323.7,257.7,321z"/>
		</g>
		<path id="XMLID_1340_" class="st2" d="M63.2,369.2c2.3,1.3,6,1.2,8.4-0.2c30-17.3,206-118.9,236-136.2c2.4-1.4,4.3-4.8,4.3-7.5
			V34.4c0-2.8-1.8-6.1-4.1-7.4c-2.3-1.3-6-1.2-8.4,0.2l-236,136.3c-2.4,1.4-4.3,4.8-4.3,7.5l0,190.9
			C59.1,364.6,60.9,367.9,63.2,369.2z"/>
		<path id="XMLID_1339_" class="st2" d="M71.6,369.1l236-136.2c2.4-1.4,4.3-4.8,4.3-7.5V34.4c0-2.8-1.9-3.9-4.3-2.5l-236,136.3
			c-2.4,1.4-4.3,4.8-4.3,7.5l0,190.9C67.2,369.3,69.2,370.4,71.6,369.1z"/>
		<path id="XMLID_1338_" class="st5" d="M71.6,369.1l236-136.2c2.4-1.4,4.3-4.8,4.3-7.5V34.4c0-2.8-1.9-3.9-4.3-2.5l-236,136.3
			c-2.4,1.4-4.3,4.8-4.3,7.5l0,190.9C67.2,369.3,69.2,370.4,71.6,369.1z"/>
		<path id="XMLID_1337_" class="st2" d="M70.9,374c-2.4,1.1-5.7,1-7.8-0.2c-2.2-1.3-4.1-4.6-4.1-7.4v-17.4l8.2,4.7v17.4
			C67.2,373.7,68.8,374.9,70.9,374z"/>
		<path id="XMLID_1606_" class="st5" d="M70.9,374c-2.4,1.1-5.7,1-7.8-0.2c-2.2-1.3-4.1-4.6-4.1-7.4v-17.4l8.2,4.7v17.4
			C67.2,373.7,68.8,374.9,70.9,374z"/>
		<path id="XMLID_1336_" class="st2" d="M67.2,353.8l0,17.4c0,2.8,1.9,3.9,4.3,2.5l236-136.2c2.4-1.4,4.3-4.8,4.3-7.5v-17.4
			L67.2,353.8z"/>
		<path id="XMLID_1335_" class="st4" d="M67.2,353.8l0,17.4c0,2.8,1.9,3.9,4.3,2.5l236-136.2c2.4-1.4,4.3-4.8,4.3-7.5v-17.4
			L67.2,353.8z"/>
		<path id="XMLID_1334_" class="st2" d="M75.4,332l0-153.7c0-1.7,1.2-3.7,2.6-4.5L301.2,45c1.4-0.8,2.6-0.2,2.6,1.5l0,153.7
			c0,1.7-1.2,3.7-2.6,4.5L78,333.5C76.6,334.3,75.4,333.7,75.4,332z"/>
		<path id="XMLID_1333_" class="st6" d="M75.4,332l0-153.7c0-1.7,1.2-3.7,2.6-4.5L301.2,45c1.4-0.8,2.6-0.2,2.6,1.5l0,153.7
			c0,1.7-1.2,3.7-2.6,4.5L78,333.5C76.6,334.3,75.4,333.7,75.4,332z"/>
		<path id="XMLID_1331_" class="st7" d="M68.5,171.3c-0.8,1.4-1.3,2.9-1.3,4.3v178.2l-8.2-4.7l0-178.2c0-1.4,0.5-2.9,1.3-4.3
			L68.5,171.3z"/>
		<path id="XMLID_1544_" class="st4" d="M311.9,33.6c-0.3-2.2-2.1-3.1-4.3-1.8l-236,136.3c-1.2,0.7-2.3,1.9-3.1,3.2l-8.2-4.7
			c0.8-1.3,1.9-2.5,3.1-3.2l236-136.2c2.4-1.4,6.2-1.5,8.4-0.2C309.9,28.2,311.6,31,311.9,33.6z"/>
	</g>
</g>
<g id="Window_1_">
	<g id="Window">
		<path id="XMLID_16497_" class="st2" d="M93.6,207.7c-1.1-0.6-2-2.3-2-3.7l0-16.9c0-1.4,1-3.1,2.2-3.8L315.9,55.2
			c1.2-0.7,3.1-0.7,4.2-0.1c1.1,0.6,2,2.3,2,3.7l0,16.9c0,1.4-1,3.1-2.2,3.7L97.8,207.7C96.6,208.4,94.7,208.4,93.6,207.7z"/>
		<path id="XMLID_16385_" class="st8" d="M322.1,58.4c-0.1-1.1-1.1-1.5-2.1-0.9L97.8,185.8c-0.6,0.4-1.1,0.9-1.5,1.6l-4.1-2.4
			c0.4-0.7,0.9-1.3,1.5-1.6L315.9,55.2c1.2-0.7,3.1-0.7,4.2-0.1C321.1,55.7,321.9,57.1,322.1,58.4z"/>
		<path id="XMLID_15230_" class="st0" d="M97.8,345.2c0,0-0.5,0.4-1.7,0.5c-0.9,0.1-1.8,0-2.5-0.4c-1.1-0.6-2-2.3-2-3.7l0-128.8
			l4.1,2.4V344c0,1,0.5,1.5,1.2,1.5C96.9,345.5,97.3,345.5,97.8,345.2z"/>
		<path id="XMLID_15482_" class="st9" d="M96.3,187.4c-0.4,0.7-0.6,1.4-0.6,2.1v25.7l-4.1-2.4l0-25.6c0-0.1,0-0.2,0-0.3
			c0-0.2,0-0.4,0.1-0.5c0.1-0.4,0.3-0.9,0.5-1.3L96.3,187.4z"/>
		<path id="XMLID_16406_" class="st2" d="M322.1,58.8l0,11.6l-159.3,92c-1.2,0.7-2.2,0.1-2.2-1.3v-4.4c0-1.4-1-1.9-2.2-1.3
			l-52.5,30.3c-1.2,0.7-2.2,2.4-2.2,3.8v4.4c0,1.4-1,3.1-2.2,3.8l-6,3.4v-11.6c0-1.4,1-3.1,2.2-3.8L319.9,57.5
			C321.1,56.8,322.1,57.4,322.1,58.8z"/>
		<g id="XMLID_705_">
			<g id="XMLID_16408_">
				<path class="st10" d="M96.8,345c-0.6,0-0.7-0.7-0.7-1V201.4l5.7-3.3c0.7-0.4,1.3-2.2,2.4-6.2c0.6-2.1,1.5-5.3,2-5.7l51.6-29.8
					c0.4,0.2,1.4,1.9,2,3c1.3,2.2,2,3.5,2.9,3.5c0.1,0,0.3,0,0.4-0.1l158.6-91.6v142c0,1.2-0.9,2.7-1.9,3.3L97.6,344.8
					C97.3,345,97,345,96.8,345z"/>
				<path class="st1" d="M321.1,72.1v12.3v128.8c0,1-0.8,2.4-1.7,2.9L97.3,344.4c-0.2,0.1-0.4,0.2-0.5,0.2c-0.2,0-0.2-0.5-0.2-0.5
					V201.7l5.5-3.2c0.9-0.5,1.4-2.2,2.6-6.5c0.5-1.9,1.4-4.8,1.8-5.4l51.2-29.6c0.4,0.5,1.2,1.8,1.6,2.6c1.4,2.4,2.2,3.7,3.3,3.7
					c0.2,0,0.5-0.1,0.7-0.2L321.1,72.1 M158.1,156.8L158.1,156.8L158.1,156.8 M106.5,186.6L106.5,186.6L106.5,186.6 M322.1,70.3
					l-159.3,92c-0.1,0-0.1,0-0.2,0c-1.2,0-3.7-6.5-4.9-6.5c-0.1,0-0.1,0-0.2,0l-51.7,29.8c-1.2,0.7-3.1,11.2-4.3,11.9l-6,3.4V344
					c0,1,0.5,1.5,1.2,1.5c0.3,0,0.6-0.1,1-0.3L319.9,217c1.2-0.7,2.2-2.4,2.2-3.8V84.4V70.3L322.1,70.3z"/>
			</g>
		</g>
		<g id="XMLID_554_">
			<path id="XMLID_704_" class="st0" d="M133.6,263.6l29.6-17.1c0.8-0.5,1.4-0.1,1.4,0.8v49.8c0,0.9-0.6,2-1.4,2.5l-29.6,17.1
				c-0.8,0.5-1.4,0.1-1.4-0.8l0-49.8C132.2,265.1,132.8,264,133.6,263.6z"/>
			<g id="XMLID_680_">
				<path id="XMLID_693_" class="st1" d="M139.1,266.7l18.8-10.8c0.8-0.5,1.4-0.1,1.4,0.7c0,0.9-0.6,1.9-1.4,2.4l-18.8,10.8
					c-0.8,0.5-1.4,0.1-1.4-0.7C137.6,268.2,138.3,267.2,139.1,266.7z"/>
				<g id="XMLID_681_">
					<path id="XMLID_692_" class="st2" d="M137.6,274.8v1.1c0,0.6,0.4,0.8,0.9,0.5l1-0.6c0.5-0.3,0.9-0.9,0.9-1.5l0-1.1
						c0-0.6-0.4-0.8-0.9-0.5l-1,0.6C138,273.6,137.6,274.2,137.6,274.8z"/>
					<path id="XMLID_690_" class="st1" d="M143,272.2c0,0.9,0.6,1.2,1.4,0.7l13.4-7.7c0.8-0.5,1.4-1.5,1.4-2.4
						c0-0.9-0.6-1.2-1.4-0.7l-13.4,7.7C143.7,270.3,143,271.4,143,272.2z"/>
					<path id="XMLID_689_" class="st2" d="M137.6,281v1.1c0,0.6,0.4,0.8,0.9,0.5l1-0.6c0.5-0.3,0.9-0.9,0.9-1.5l0-1.1
						c0-0.6-0.4-0.8-0.9-0.5l-1,0.6C138,279.8,137.6,280.5,137.6,281z"/>
					<path id="XMLID_686_" class="st1" d="M143,278.5c0,0.9,0.6,1.2,1.4,0.7l13.4-7.7c0.8-0.5,1.4-1.5,1.4-2.4
						c0-0.9-0.6-1.2-1.4-0.7l-13.4,7.7C143.7,276.5,143,277.6,143,278.5z"/>
					<path id="XMLID_685_" class="st2" d="M137.6,287.3v1.1c0,0.6,0.4,0.8,0.9,0.5l1-0.6c0.5-0.3,0.9-0.9,0.9-1.5l0-1.1
						c0-0.6-0.4-0.8-0.9-0.5l-1,0.6C138,286.1,137.6,286.7,137.6,287.3z"/>
					<path id="XMLID_684_" class="st1" d="M143,284.7c0,0.9,0.6,1.2,1.4,0.7l13.4-7.7c0.8-0.5,1.4-1.5,1.4-2.4
						c0-0.9-0.6-1.2-1.4-0.7l-13.4,7.7C143.7,282.8,143,283.9,143,284.7z"/>
					<path id="XMLID_683_" class="st2" d="M137.6,293.5v1.1c0,0.6,0.4,0.8,0.9,0.5l1-0.6c0.5-0.3,0.9-0.9,0.9-1.5l0-1.1
						c0-0.6-0.4-0.8-0.9-0.5l-1,0.6C138,292.3,137.6,293,137.6,293.5z"/>
					<path id="XMLID_682_" class="st1" d="M143,291c0,0.9,0.6,1.2,1.4,0.7l13.4-7.7c0.8-0.5,1.4-1.5,1.4-2.4c0-0.9-0.6-1.2-1.4-0.7
						l-13.4,7.7C143.7,289,143,290.1,143,291z"/>
				</g>
			</g>
			<g id="XMLID_601_">
				<path id="XMLID_679_" class="st1" d="M138.9,301.1l18.8-10.8c0.8-0.5,1.4-0.1,1.4,0.7c0,0.9-0.6,1.9-1.4,2.4l-18.8,10.8
					c-0.8,0.5-1.4,0.1-1.4-0.7C137.5,302.7,138.1,301.6,138.9,301.1z"/>
				<g id="XMLID_602_">
					<path id="XMLID_678_" class="st2" d="M137.5,309.2v1.1c0,0.6,0.4,0.8,0.9,0.5l1-0.6c0.5-0.3,0.9-0.9,0.9-1.5l0-1.1
						c0-0.6-0.4-0.8-0.9-0.5l-1,0.6C137.9,308,137.5,308.7,137.5,309.2z"/>
					<path id="XMLID_677_" class="st1" d="M142.9,306.7c0,0.9,0.6,1.2,1.4,0.7l13.4-7.7c0.8-0.5,1.4-1.5,1.4-2.4
						c0-0.9-0.6-1.2-1.4-0.7l-13.4,7.7C143.6,304.7,142.9,305.8,142.9,306.7z"/>
				</g>
			</g>
		</g>
		<g id="XMLID_16485_">
			<path id="XMLID_16513_" class="st11" d="M311.9,66c1.5-0.9,2.7-0.2,2.7,1.6c0,1.7-1.2,3.8-2.7,4.7c-1.5,0.9-2.7,0.2-2.7-1.6
				C309.2,69,310.4,66.9,311.9,66z"/>
			<path id="XMLID_16512_" class="st11" d="M302.1,71.7c1.5-0.9,2.7-0.2,2.7,1.6s-1.2,3.9-2.7,4.7c-1.5,0.9-2.7,0.2-2.7-1.6
				C299.4,74.7,300.6,72.5,302.1,71.7z"/>
			
				<ellipse id="XMLID_16511_" transform="matrix(0.5 -0.866 0.866 0.5 76.4755 293.3972)" class="st11" cx="292.3" cy="80.5" rx="3.9" ry="2.2"/>
		</g>
		<g>
			<path id="XMLID_16384_" class="st12" d="M322.1,70.3v14.1L95.6,215.2v-14.1l4.5-2.6c1.2-0.7,1.6-1.7,2.2-3.8l1.5-5.2
				c0.5-1.8,1-3.1,2.2-3.8l51.7-29.8c1.2-0.7,2.1-0.8,3,0.7l1.9,3.4c0.7,1.2,1,1.9,2.2,1.2L322.1,70.3z"/>
			<polygon id="XMLID_15229_" class="st1" points="95.6,201.1 95.6,215.2 91.6,212.8 91.6,198.7 			"/>
		</g>
		<g>
			<path id="XMLID_16490_" class="st13" d="M105.6,202.1l-3.4,2l1.3-2.5c0.1-0.2,0.1-0.5,0-0.6c-0.1-0.1-0.3,0-0.4,0.2l-1.8,3.5
				c0,0,0,0,0,0c0,0,0,0.1,0,0.1c0,0,0,0,0,0c0,0.1,0,0.1,0,0.2c0,0.1,0,0.1,0,0.2c0,0,0,0,0,0c0,0,0,0.1,0,0.1c0,0,0,0,0,0l1.8,1.4
				c0.1,0,0.1,0,0.2,0c0.1,0,0.2-0.1,0.2-0.3c0.1-0.2,0.1-0.5,0-0.6l-1.3-1l3.4-2c0.2-0.1,0.3-0.3,0.3-0.6S105.7,202,105.6,202.1z"
				/>
			<path id="XMLID_16486_" class="st13" d="M108.4,200.5l3.4-2l-1.3-1c-0.1-0.1-0.1-0.3,0-0.6c0.1-0.2,0.3-0.3,0.4-0.3l1.8,1.4
				c0,0,0,0,0,0c0,0,0,0,0,0.1c0,0,0,0,0,0c0,0,0,0.1,0,0.2c0,0.1,0,0.1,0,0.2c0,0,0,0,0,0c0,0,0,0.1,0,0.1c0,0,0,0,0,0l-1.8,3.5
				c-0.1,0.1-0.1,0.2-0.2,0.2c-0.1,0-0.2,0-0.2,0c-0.1-0.1-0.1-0.4,0-0.6l1.3-2.5l-3.4,2c-0.2,0.1-0.3,0-0.3-0.3
				C108.1,200.8,108.3,200.5,108.4,200.5z"/>
			<path id="XMLID_15775_" class="st13" d="M119.6,190.7c0-0.2-0.2-0.2-0.3,0l-0.5,1.1c-0.8-0.1-1.8,0.7-2.4,2.1
				c-0.8,1.8-0.8,3.9,0,4.7c0.4,0.4,1,0.4,1.5,0.1c0.6-0.3,1.1-1,1.5-1.9c0.1-0.2,0.1-0.5,0-0.6c-0.1-0.1-0.3,0-0.4,0.2
				c-0.6,1.3-1.7,1.9-2.3,1.3c-0.6-0.6-0.6-2.2,0-3.5c0.4-0.9,1.1-1.5,1.7-1.5l-0.4,0.9c-0.1,0.2,0,0.4,0.1,0.3l1.4-0.9
				c0.1-0.1,0.2-0.2,0.2-0.4L119.6,190.7z"/>
			<path id="XMLID_16043_" class="st13" d="M156.1,162.4l1.2-2.6c0.1-0.3,0.1-0.7,0-0.8c-0.1-0.1-0.4,0-0.5,0.3l-1.2,2.6l-1.2-1.2
				c-0.1-0.1-0.4,0-0.5,0.3c-0.1,0.3-0.1,0.7,0,0.8l1.2,1.2l-1.2,2.6c-0.1,0.3-0.1,0.7,0,0.8c0.1,0.1,0.2,0.1,0.3,0
				c0.1-0.1,0.2-0.2,0.3-0.3l1.2-2.6l1.2,1.2c0.1,0.1,0.2,0.1,0.3,0c0.1-0.1,0.2-0.2,0.3-0.3c0.1-0.3,0.1-0.7,0-0.8L156.1,162.4z"/>
			<path id="XMLID_15769_" class="st10" d="M124.1,193.9v-4.4c0-1.4,1-3.1,2.2-3.8L307.7,81c1.2-0.7,2.2-0.1,2.2,1.3l0,4.4
				c0,1.4-1,3.1-2.2,3.8L126.2,195.1C125,195.8,124.1,195.3,124.1,193.9z"/>
			<path id="XMLID_16161_" class="st14" d="M306.5,83.3l0.6,1.2c0,0.1,0.1,0.1,0.2,0.1l1.3-0.5c0.2-0.1,0.3,0.2,0.1,0.5l-0.9,1.7
				c-0.1,0.1-0.1,0.2-0.1,0.3l0.2,1.6c0,0.2-0.2,0.6-0.4,0.6l-1.1-0.1c-0.1,0-0.2,0-0.2,0.1l-1.1,1.5c-0.2,0.2-0.4,0.1-0.4-0.1
				l0.2-1.8c0-0.1,0-0.2-0.1-0.2l-0.9-0.7c-0.1-0.1-0.1-0.5,0.1-0.6l1.3-1c0.1-0.1,0.1-0.2,0.2-0.3l0.6-1.9
				C306.1,83.3,306.4,83.1,306.5,83.3z"/>
			<g id="XMLID_15675_" class="st5">
				<g id="XMLID_330_">
					<path id="XMLID_442_" class="st15" d="M312.5,80.5c-0.3,0-0.5-0.1-0.7-0.4c-0.2-0.4-0.1-0.8,0.3-1l6.1-3.5
						c0.4-0.2,0.8-0.1,1,0.3c0.2,0.4,0.1,0.8-0.3,1l-6.1,3.5C312.7,80.4,312.6,80.5,312.5,80.5z"/>
				</g>
				<g id="XMLID_299_">
					<path id="XMLID_300_" class="st15" d="M312.5,84c-0.3,0-0.5-0.1-0.7-0.4c-0.2-0.4-0.1-0.8,0.3-1l6.1-3.5c0.4-0.2,0.8-0.1,1,0.3
						c0.2,0.4,0.1,0.8-0.3,1l-6.1,3.5C312.7,84,312.6,84,312.5,84z"/>
				</g>
				<g id="XMLID_298_">
					<path id="XMLID_440_" class="st15" d="M312.5,87.5c-0.3,0-0.5-0.1-0.7-0.4c-0.2-0.4-0.1-0.8,0.3-1l6.1-3.5
						c0.4-0.2,0.8-0.1,1,0.3c0.2,0.4,0.1,0.8-0.3,1l-6.1,3.5C312.7,87.5,312.6,87.5,312.5,87.5z"/>
				</g>
			</g>
		</g>
		<g>
			<polygon class="st15" points="95.6,215.2 95.6,229.2 322.1,98.5 322.1,84.4 			"/>
			<g>
				<g id="XMLID_375_">
					<g id="XMLID_393_">
						<path id="XMLID_425_" class="st10" d="M121,206.2l0,2.7c0,0.6,0.4,0.8,0.9,0.5l34-19.7l0-4.7l-34,19.7
							C121.4,205,121,205.6,121,206.2z"/>
						<path id="XMLID_424_" class="st2" d="M160.5,182.4c0.5-0.3,0.9-0.1,0.9,0.5v2.7c0,0.6-0.4,1.2-0.9,1.5l-4.6,2.7l0-4.7
							L160.5,182.4z"/>
						<path id="XMLID_402_" class="st10" d="M160.2,186.1l-0.5-0.2c0.1-0.2,0.1-0.4,0.1-0.7c0-0.5-0.2-0.9-0.5-1.1
							c-0.2-0.1-0.5-0.1-0.7,0c-0.6,0.3-1,1.3-1,2.1c0,0.5,0.2,0.9,0.5,1.1c0.1,0.1,0.2,0.1,0.3,0.1c0.1,0,0.3,0,0.4-0.1
							c0.3-0.2,0.6-0.6,0.8-1.1l0.5,0.2c0,0,0,0,0.1,0c0.1,0,0.2-0.1,0.2-0.1C160.3,186.2,160.3,186.1,160.2,186.1z M158.5,187.1
							c-0.1,0.1-0.3,0.1-0.4,0c-0.2-0.1-0.3-0.4-0.3-0.8c0-0.7,0.4-1.5,0.8-1.8c0.1,0,0.2-0.1,0.2-0.1c0,0,0.1,0,0.1,0
							c0.2,0.1,0.3,0.4,0.3,0.8C159.4,186,159,186.8,158.5,187.1z"/>
					</g>
				</g>
				<path class="st10" d="M115.1,208.6l-2.3,1.3c-0.5,0.3-0.9,0.9-0.9,1.5v2.7c0,0.6,0.4,0.8,0.9,0.5l2.3-1.3
					c0.5-0.3,0.9-0.9,0.9-1.5l0-2.7C115.9,208.6,115.6,208.4,115.1,208.6z"/>
				<g>
					<g id="XMLID_1521_">
						<path id="XMLID_1520_" class="st2" d="M195.7,160.9c-1.7,1-3.1,3.4-3.1,5.4c0,2,1.4,2.8,3.1,1.8c1.7-1,3.1-3.4,3.1-5.4
							C198.8,160.7,197.4,159.9,195.7,160.9z"/>
						<g id="XMLID_1513_">
							<g id="XMLID_1517_">
								<path id="XMLID_1518_" class="st11" d="M195.3,164.1c-0.1,0-0.2,0-0.3-0.1c-0.2-0.1-0.3-0.3-0.3-0.6c0-0.5,0.4-1.2,0.8-1.4
									v0c0.2-0.1,0.5-0.2,0.7-0.1c0.2,0.1,0.3,0.3,0.3,0.6c0,0.5-0.4,1.2-0.8,1.4C195.6,164,195.5,164.1,195.3,164.1z"/>
							</g>
							<g id="XMLID_1514_">
								<path id="XMLID_1515_" class="st11" d="M196.9,164.3c-0.3-0.2-0.7-0.1-1.1,0.1l-0.5,0.3c-0.8,0.5-1.4,1.5-1.4,2.4v0.3
									c0.4,0.2,1,0.2,1.7-0.2c0.7-0.4,1.3-1,1.7-1.8v-0.1C197.4,164.8,197.2,164.5,196.9,164.3z"/>
							</g>
						</g>
					</g>
					<path class="st1" d="M202.8,158.5l21.3-12.3c0.9-0.5,1.6-0.1,1.6,0.8c0,1-0.7,2.1-1.6,2.6L202.8,162c-0.9,0.5-1.6,0.1-1.6-0.8
						C201.2,160.2,201.9,159,202.8,158.5z"/>
					<path class="st1" d="M235.2,139.8l13.2-7.7c0.9-0.5,1.6-0.1,1.6,0.8c0,1-0.7,2.1-1.6,2.6l-13.2,7.7c-0.9,0.5-1.6,0.1-1.6-0.8
						C233.7,141.5,234.4,140.3,235.2,139.8z"/>
					<path class="st1" d="M259.6,125.8l9.1-5.3c0.9-0.5,1.6-0.1,1.6,0.8c0,1-0.7,2.1-1.6,2.6l-9.1,5.3c-0.9,0.5-1.6,0.1-1.6-0.8
						C258.1,127.5,258.8,126.3,259.6,125.8z"/>
					<g>
						<path class="st6" d="M229.7,147.5c-0.2,0-0.4-0.2-0.4-0.4v-4.7c0-0.2,0.2-0.4,0.4-0.4c0.2,0,0.4,0.2,0.4,0.4v4.7
							C230.1,147.4,229.9,147.5,229.7,147.5z"/>
					</g>
					<g>
						<path class="st6" d="M254,133.5c-0.2,0-0.4-0.2-0.4-0.4v-4.7c0-0.2,0.2-0.4,0.4-0.4c0.2,0,0.4,0.2,0.4,0.4v4.7
							C254.4,133.3,254.3,133.5,254,133.5z"/>
						<path class="st6" d="M274.4,121.7c-0.2,0-0.4-0.2-0.4-0.4v-4.7c0-0.2,0.2-0.4,0.4-0.4s0.4,0.2,0.4,0.4v4.7
							C274.7,121.6,274.6,121.7,274.4,121.7z"/>
					</g>
				</g>
				<g>
					<g id="XMLID_1382_">
						<path id="XMLID_1384_" class="st2" d="M282.2,114.5v-0.9c0-1-0.6-1.4-1.3-1l0,0c-0.7,0.4-1.3,1.6-1.3,2.6v0.8
							c0,0.5-0.2,1-0.4,1.5c0,0,0,0,0,0c-0.1,0.1-0.1,0.3-0.1,0.4l0,0c0,0.2,0.2,0.4,0.3,0.3l3.1-1.8c0.2-0.1,0.3-0.4,0.3-0.6l0,0
							c0-0.1,0-0.2-0.1-0.3c0,0,0,0,0,0C282.4,115.3,282.2,115,282.2,114.5z"/>
						<path id="XMLID_1383_" class="st2" d="M281.5,117.1c0,0.5-0.3,1-0.6,1.2c-0.4,0.2-0.6,0-0.6-0.5L281.5,117.1z"/>
					</g>
					<g>
						<g id="XMLID_426_">
							<g id="XMLID_448_">
								<path id="XMLID_449_" class="st2" d="M287.9,110.7c-0.1,0-0.2,0-0.3-0.1c-0.2-0.1-0.3-0.4-0.3-0.7c0-0.6,0.4-1.3,0.9-1.6v0
									c0.3-0.2,0.6-0.2,0.8-0.1c0.2,0.1,0.3,0.4,0.3,0.7c0,0.6-0.4,1.3-0.9,1.6C288.2,110.7,288,110.7,287.9,110.7z"/>
							</g>
							<g id="XMLID_430_">
								<path id="XMLID_446_" class="st2" d="M289.7,111c-0.3-0.2-0.8-0.2-1.2,0.1l-0.5,0.3c-0.9,0.5-1.6,1.7-1.6,2.7v0.4
									c0.5,0.3,1.2,0.2,1.9-0.2c0.8-0.4,1.4-1.2,1.9-2v-0.1C290.2,111.6,290,111.2,289.7,111z"/>
							</g>
						</g>
						<g id="XMLID_454_">
							<g id="XMLID_608_">
								<path id="XMLID_611_" class="st2" d="M290.4,108.4c-0.1,0-0.2,0-0.3-0.1c-0.2-0.1-0.3-0.4-0.3-0.7c0-0.6,0.4-1.3,0.9-1.6v0
									c0.3-0.2,0.6-0.2,0.8-0.1c0.2,0.1,0.3,0.4,0.3,0.7c0,0.6-0.4,1.3-0.9,1.6C290.7,108.4,290.5,108.4,290.4,108.4z"/>
							</g>
							<g id="XMLID_455_">
								<path id="XMLID_460_" class="st2" d="M292.2,108.6c-0.3-0.2-0.8-0.2-1.2,0.1l-0.5,0.3c-0.5,0.3-1,0.9-1.3,1.5
									c0.4-0.2,0.8-0.2,1.1,0c0.4,0.2,0.6,0.6,0.6,1.2v0.1v0.1c0.8-0.4,1.4-1.2,1.9-2v-0.1C292.7,109.3,292.5,108.8,292.2,108.6z"
									/>
							</g>
						</g>
					</g>
					<path class="st2" d="M298.3,102.2c-1.4,0.8-2.5,2.8-2.5,4.4c0,0.7,0.2,1.2,0.6,1.5l-0.3,1.5c0,0.2,0.1,0.3,0.2,0.1l1.1-1.3
						c0.3,0,0.6-0.1,0.9-0.3c1.4-0.8,2.5-2.8,2.5-4.4C300.9,102.1,299.7,101.4,298.3,102.2z"/>
					<g>
						<path class="st2" d="M310.6,95.1c0.2-0.1,0.4-0.2,0.6-0.2c0.2,0,0.4,0,0.5,0.1c0.1,0.1,0.3,0.2,0.3,0.4
							c0.1,0.2,0.1,0.4,0.1,0.7c0,0.2,0,0.4-0.1,0.6c0,0.2-0.1,0.4-0.2,0.6c-0.1,0.2-0.2,0.3-0.2,0.5c-0.1,0.2-0.2,0.3-0.3,0.5
							c-0.1,0.2-0.2,0.3-0.2,0.5c-0.1,0.2-0.1,0.3-0.1,0.4c0,0.1,0,0.1-0.1,0.2c0,0.1-0.1,0.1-0.1,0.1l-0.7,0.4c0,0-0.1,0-0.1,0
							c0,0,0-0.1,0-0.1c0-0.2,0-0.4,0.1-0.6c0.1-0.2,0.1-0.4,0.2-0.6c0.1-0.2,0.2-0.3,0.3-0.5c0.1-0.2,0.2-0.3,0.3-0.5
							c0.1-0.1,0.1-0.3,0.2-0.4c0.1-0.1,0.1-0.3,0.1-0.4c0-0.2,0-0.3-0.1-0.3c-0.1-0.1-0.2,0-0.4,0.1c-0.2,0.1-0.3,0.2-0.4,0.3
							c-0.1,0.1-0.1,0.3-0.2,0.4c0,0.1-0.1,0.2-0.1,0.3c0,0.1-0.1,0.2-0.2,0.2l-0.7,0.4c0,0-0.1,0-0.1,0c0,0,0-0.1,0-0.1
							c0-0.2,0-0.5,0.1-0.7c0.1-0.3,0.2-0.6,0.3-0.8c0.1-0.3,0.3-0.5,0.5-0.8C310.1,95.5,310.3,95.3,310.6,95.1z M311.1,101.1
							c0,0.1,0,0.1,0,0.2c0,0.1-0.1,0.1-0.1,0.1l-0.8,0.4c0,0-0.1,0-0.1,0c0,0,0-0.1,0-0.1v-0.9c0-0.1,0-0.1,0-0.2
							c0-0.1,0.1-0.1,0.1-0.1l0.8-0.4c0,0,0.1,0,0.1,0c0,0,0,0.1,0,0.1V101.1z"/>
					</g>
				</g>
			</g>
		</g>
		<g>
			<g id="XMLID_331_">
				<path id="XMLID_354_" class="st2" d="M132.2,215.3v41.9c0,1.4,1,1.9,2.2,1.3l149-86.1c1.2-0.7,2.2-2.4,2.2-3.8l0-41.9
					c0-1.4-1-1.9-2.2-1.3l-149,86.1C133.2,212.3,132.2,213.9,132.2,215.3z"/>
				<path id="XMLID_723_" class="st16" d="M132.2,215.3v41.9c0,1.4,1,1.9,2.2,1.3l149-86.1c1.2-0.7,2.2-2.4,2.2-3.8l0-41.9
					c0-1.4-1-1.9-2.2-1.3l-149,86.1C133.2,212.3,132.2,213.9,132.2,215.3z"/>
			</g>
			<g id="XMLID_475_">
				<path id="XMLID_721_" class="st2" d="M144.4,221.4c-4.5,2.6-8.1,8.9-8.1,14.1c0,5.2,3.6,7.3,8.1,4.7c4.5-2.6,8.1-8.9,8.1-14.1
					C152.5,220.9,148.9,218.8,144.4,221.4z"/>
				<g id="XMLID_613_">
					<g id="XMLID_707_">
						<path id="XMLID_708_" class="st11" d="M143.4,229.7c-0.3,0-0.5-0.1-0.7-0.2c-0.5-0.3-0.8-0.9-0.8-1.6c0-1.4,0.9-3,2.1-3.7v0
							c0.7-0.4,1.3-0.4,1.8-0.1c0.5,0.3,0.8,0.9,0.8,1.6c0,1.4-0.9,3-2.1,3.7C144.1,229.6,143.8,229.7,143.4,229.7z"/>
					</g>
					<g id="XMLID_674_">
						<path id="XMLID_675_" class="st11" d="M147.6,230.2c-0.8-0.5-1.8-0.4-2.9,0.2l-1.2,0.7c-2,1.2-3.7,4-3.7,6.3v0.8
							c1.2,0.6,2.7,0.5,4.5-0.5c1.7-1,3.3-2.7,4.5-4.7v-0.2C148.9,231.7,148.4,230.7,147.6,230.2z"/>
					</g>
				</g>
			</g>
			<g>
				<path class="st15" d="M158.1,219.7l17.2-9.9c0.9-0.5,1.6-0.2,1.6,0.7s-0.7,2-1.6,2.5l-17.2,9.9c-0.9,0.5-1.6,0.2-1.6-0.7
					C156.6,221.3,157.3,220.2,158.1,219.7z"/>
				<path class="st15" d="M157.5,226.4l10.1-5.8c0.5-0.3,0.9-0.1,0.9,0.4c0,0.5-0.4,1.2-0.9,1.5l-10.1,5.8c-0.5,0.3-0.9,0.1-0.9-0.4
					C156.6,227.3,157,226.7,157.5,226.4z"/>
			</g>
			<path class="st17" d="M134.4,258.5l149-86.1c1.2-0.7,2.2-2.4,2.2-3.8v-6.9l-153.4,88.5v6.9C132.2,258.7,133.2,259.2,134.4,258.5z
				"/>
			<g>
				<path class="st18" d="M172.8,234.3c-0.2,0-0.4-0.2-0.4-0.4v-4.7c0-0.2,0.2-0.4,0.4-0.4c0.2,0,0.4,0.2,0.4,0.4v4.7
					C173.2,234.1,173,234.3,172.8,234.3z"/>
				<path class="st1" d="M154.6,240.5l13.2-7.7c0.9-0.5,1.6-0.1,1.6,0.8c0,1-0.7,2.1-1.6,2.6l-13.2,7.7c-0.9,0.5-1.6,0.1-1.6-0.8
					C153.1,242.2,153.8,241,154.6,240.5z"/>
				<path class="st18" d="M196.6,220.5c-0.2,0-0.4-0.2-0.4-0.4v-4.7c0-0.2,0.2-0.4,0.4-0.4c0.2,0,0.4,0.2,0.4,0.4v4.7
					C197,220.3,196.8,220.5,196.6,220.5z"/>
				<path class="st1" d="M178.4,226.6l13.2-7.7c0.9-0.5,1.6-0.1,1.6,0.8c0,1-0.7,2.1-1.6,2.6l-13.2,7.7c-0.9,0.5-1.6,0.1-1.6-0.8
					C176.9,228.3,177.6,227.1,178.4,226.6z"/>
				<path class="st18" d="M220.4,206.6c-0.2,0-0.4-0.2-0.4-0.4v-4.7c0-0.2,0.2-0.4,0.4-0.4c0.2,0,0.4,0.2,0.4,0.4v4.7
					C220.8,206.5,220.6,206.6,220.4,206.6z"/>
				<path class="st1" d="M202.3,212.8l13.2-7.7c0.9-0.5,1.6-0.1,1.6,0.8c0,1-0.7,2.1-1.6,2.6l-13.2,7.7c-0.9,0.5-1.6,0.1-1.6-0.8
					C200.7,214.5,201.4,213.3,202.3,212.8z"/>
				<path class="st18" d="M244.2,192.8c-0.2,0-0.4-0.2-0.4-0.4v-4.7c0-0.2,0.2-0.4,0.4-0.4c0.2,0,0.4,0.2,0.4,0.4v4.7
					C244.6,192.6,244.4,192.8,244.2,192.8z"/>
				<path class="st1" d="M226.1,199l13.2-7.7c0.9-0.5,1.6-0.1,1.6,0.8c0,1-0.7,2.1-1.6,2.6l-13.2,7.7c-0.9,0.5-1.6,0.1-1.6-0.8
					C224.5,200.6,225.2,199.5,226.1,199z"/>
				<path class="st1" d="M249.9,185.1l13.2-7.7c0.9-0.5,1.6-0.1,1.6,0.8c0,1-0.7,2.1-1.6,2.6l-13.2,7.7c-0.9,0.5-1.6,0.1-1.6-0.8
					C248.3,186.8,249,185.6,249.9,185.1z"/>
			</g>
		</g>
	</g>
</g>
<g id="Plants">
	<g id="Plants_12_">
		<path id="XMLID_1438_" class="st2" d="M127,398.9l13.3-7.7c0,0,8.2-24.3,6.2-46.6c-2.6-27.8-15.7-37.6-23.4-34.5
			c-7.7,3.1-6.1,14.2,2.1,29C131.5,350.9,131.5,378.1,127,398.9z"/>
		<path id="XMLID_1439_" class="st9" d="M127,398.9l13.3-7.7c0,0,8.2-24.3,6.2-46.6c-2.6-27.8-15.7-37.6-23.4-34.5
			c-7.7,3.1-6.1,14.2,2.1,29C131.5,350.9,131.5,378.1,127,398.9z"/>
		<g id="XMLID_1406_">
			<g id="XMLID_1407_">
				<path id="XMLID_1408_" class="st11" d="M133.3,395.8c0.3,0,0.5-0.2,0.6-0.4c8.6-26.2,8.9-63-7.3-79.6c-0.2-0.2-0.6-0.2-0.9,0
					c-0.2,0.2-0.2,0.6,0,0.9c15.3,15.7,15.6,52.2,7,78.4c-0.1,0.3,0.1,0.7,0.4,0.8C133.2,395.8,133.3,395.8,133.3,395.8z"/>
			</g>
		</g>
		<g id="XMLID_1396_">
			<path id="XMLID_1405_" class="st2" d="M103.1,412.7c-1.4,0.8-4.2-0.9-5.3-1.7c-1.9-1.2-3.4-3-4.4-5c-1.2-2.3-1.5-4.8-1.1-7.4
				c0.2-1.3,0.6-2.6,0.9-3.9c0.4-1.3,0.7-2.5,1.1-3.8c0.4-1.3,0.7-2.6,0.6-3.8c-0.3-2.6-2.7-4.4-4.8-6c-2.3-1.7-4.8-4-4.7-7.2
				c0-2.4,1.3-4.7,2.8-6.6c1.5-1.9,3.3-3.6,4.6-5.6c1-1.4,1.7-3.1,1.6-4.9c-0.1-1.1-0.5-2.1-1.1-3.1c-1.1-2-2.6-3.9-3.3-6.1
				c-0.8-2.2-0.7-4.9,1.1-6.5c1.4-1.3,3.5-1.5,5.4-1.3c1.8,0.1,3.5,0.9,5,1.8c5,2.8,7.8,8.7,13.1,10.8c2,0.8,4.3,1,6.4,1.6
				c2.1,0.6,4.3,1.6,5.3,3.6c1.9,3.9-1.7,8.7-0.3,12.8c1.2,3.6,4.8,5,6.7,8.3c0.9,1.4,1.1,3.1,0.9,4.8c-0.2,2.8-0.7,4.9-2,8.1
				c-1.1,2.6-4.4,7.3-4.4,7.3C127.2,398.8,103.3,412.6,103.1,412.7z"/>
			<g id="XMLID_1403_">
				<path id="XMLID_1404_" class="st11" d="M117.3,405c0.3,0,0.5-0.2,0.5-0.5c2.6-20.4-7.2-47.8-21.7-61.2c-0.2-0.2-0.6-0.2-0.8,0
					c-0.2,0.2-0.2,0.6,0,0.8c14.3,13.2,23.9,40.2,21.3,60.3C116.8,404.7,117,404.9,117.3,405C117.3,405,117.3,405,117.3,405z"/>
			</g>
			<g id="XMLID_1401_">
				<path id="XMLID_1402_" class="st11" d="M114.9,378.9c0.2,0,0.3-0.1,0.4-0.2c0.2-0.2,0.1-0.6-0.1-0.8c-8-6-20.3-5-20.8-4.9
					c-0.3,0-0.5,0.3-0.5,0.6c0,0.3,0.3,0.5,0.6,0.5c0.1,0,12.3-1.1,20,4.7C114.6,378.9,114.7,378.9,114.9,378.9z"/>
			</g>
			<g id="XMLID_1397_">
				<path id="XMLID_1398_" class="st11" d="M113.6,373.9c0.3,0,0.5-0.2,0.5-0.5c0.4-9.3,7.4-15,7.5-15c0.2-0.2,0.3-0.5,0.1-0.8
					c-0.2-0.2-0.5-0.3-0.8-0.1c-0.3,0.2-7.5,6-7.9,15.8C113.1,373.7,113.3,373.9,113.6,373.9C113.6,373.9,113.6,373.9,113.6,373.9z"
					/>
			</g>
		</g>
	</g>
</g>
<g id="Post_1_">
	<g id="Post">
		<g>
			<path class="st18" d="M245.9,395.7c-18-10.4-30.2-28.4-33.3-48.9l-7.1-47.1c-2.7-18.1-12.6-34.4-27.5-45.1l-9.3-6.7l0,5.3l5,3.6
				c14.8,10.7,24.7,26.9,27.5,45l7.2,47.4c3.1,20.5,15.4,38.4,33.3,48.8l4.1,2.4L245.9,395.7L245.9,395.7z"/>
			<g>
				<path class="st10" d="M245.9,395.2c-17.8-10.4-29.8-28-32.8-48.4l-7.1-47.1c-2.7-18.1-12.8-34.7-27.7-45.5l-8.6-6.2l112.8-65.1
					l9,6.5c14.7,10.6,24.6,26.9,27.3,44.8l7.1,47.1c3.1,20.5,15,38.2,32.8,48.8L245.9,395.2z"/>
				<path class="st1" d="M282.4,183.5l8.7,6.3c14.6,10.5,24.4,26.7,27.1,44.5l7.1,47.1c3.1,20.4,14.8,38,32.3,48.7l-111.8,64.5
					c-17.5-10.3-29.3-27.7-32.3-47.9l-7.1-47.1c-2.8-18.3-12.9-35-27.9-45.8l-8-5.8L282.4,183.5 M282.5,182.3L168.7,248l9.3,6.7
					c14.9,10.7,24.8,27,27.5,45.1l7.1,47.1c3.1,20.5,15.4,38.5,33.3,48.9h0l113.7-65.7l0,0c-18-10.4-30.2-28.4-33.3-48.9l-7.1-47.1
					c-2.7-18.1-12.6-34.4-27.5-45.1L282.5,182.3L282.5,182.3z"/>
			</g>
			<polygon class="st17" points="245.9,395.7 359.7,330.1 359.7,334.8 245.9,400.4 			"/>
		</g>
		<g id="XMLID_352_">
			<path id="XMLID_725_" class="st2" d="M190,244.5c-4,1.7-4.4,5.2-0.9,7.7c3.4,2.6,9.5,3.3,13.4,1.6c4-1.7,4.4-5.2,0.9-7.7
				C200,243.5,194,242.8,190,244.5z"/>
			<g id="XMLID_450_">
				<g id="XMLID_544_">
					<path id="XMLID_550_" class="st11" d="M194.3,248.7c-0.3,0-0.7,0-1,0c-0.8-0.1-1.6-0.4-2.1-0.7c-0.9-0.7-0.8-1.6,0.2-2l0,0
						c0.6-0.2,1.4-0.3,2.2-0.2c0.8,0.1,1.6,0.4,2.1,0.7c0.9,0.7,0.8,1.6-0.2,2C195.1,248.6,194.7,248.6,194.3,248.7z"/>
				</g>
				<g id="XMLID_451_">
					<path id="XMLID_537_" class="st11" d="M199.9,248.6c-1.3-0.2-2.6,0-3.5,0.4l-1,0.4c-1.8,0.8-2,2.3-0.4,3.5l0.6,0.4
						c1.9,0.2,4.1,0.2,5.7-0.4c1.7-0.7,2.8-1.4,2.9-2.5l-0.8-0.5C202.5,249.2,201.3,248.7,199.9,248.6z"/>
				</g>
			</g>
		</g>
		<g>
			<path class="st15" d="M208.5,237.1l33.4-19.3c1.2-0.7,3.1-0.6,4.2,0.2c0.1,0.1,0.2,0.2,0.3,0.2c1.1,0.9,1,2.2-0.2,2.8l-33.4,19.3
				c-1.2,0.7-3,0.5-4.1-0.4c-0.1-0.1-0.2-0.2-0.4-0.3C207.2,238.9,207.3,237.8,208.5,237.1z"/>
			<path class="st15" d="M215.8,244.9l16.7-9.7c0.6-0.3,0.7-1,0.2-1.5l-0.3-0.3c-0.5-0.5-1.4-0.6-2-0.2l-16.6,9.7
				c-0.6,0.3-0.7,1-0.2,1.5l0.2,0.2C214.3,245.1,215.2,245.2,215.8,244.9z"/>
		</g>
		<g>
			<path class="st19" d="M204.9,263.2l90.1-52c1.2-0.7,2.8-0.4,3.6,0.8c0.1,0.1,0.1,0.2,0.2,0.3c0.8,1.1,0.4,2.7-0.8,3.3l-90.2,52.1
				c-1.2,0.7-2.7,0.3-3.5-0.9c-0.1-0.1-0.1-0.2-0.2-0.3C203.4,265.3,203.7,263.9,204.9,263.2z"/>
			<path class="st19" d="M210.3,272.1l90.2-52.1c1.2-0.7,2.7-0.3,3.3,1c0,0.1,0.1,0.2,0.1,0.3c0.6,1.2,0.1,2.8-1.1,3.5l-90.2,52.1
				c-1.2,0.7-2.6,0.2-3.2-1c-0.1-0.1-0.1-0.2-0.2-0.3C208.7,274.3,209.2,272.8,210.3,272.1z"/>
			<path class="st19" d="M214.4,281.7l90.3-52.1c1.2-0.7,2.5-0.2,2.9,1.1c0,0.1,0.1,0.3,0.1,0.4c0.4,1.3-0.3,3-1.5,3.7L215.9,287
				c-1.2,0.7-2.4,0.2-2.8-1.2c0-0.2-0.1-0.3-0.1-0.5C212.6,284,213.2,282.4,214.4,281.7z"/>
			<path class="st19" d="M217,292.2l52.5-30.3c1.2-0.7,2.3-0.1,2.5,1.2l0.1,0.7c0.2,1.4-0.6,3-1.8,3.7l-52.5,30.3
				c-1.2,0.7-2.3,0.1-2.5-1.2c0-0.2-0.1-0.5-0.1-0.7C215,294.6,215.8,292.9,217,292.2z"/>
		</g>
		<g>
			<path class="st2" d="M325.5,320.8l-85.9,49.6c-2.4,1.4-5.7,0.8-7.2-1.6c-5.4-8.3-9.1-18.7-10.9-31.1l-3.4-22.8
				c-0.4-2.7,1.2-6.1,3.6-7.4l86-49.7c2.4-1.4,4.7-0.3,5.1,2.4l3.4,22.8c1.4,11.8,5,22.2,10.8,31.1
				C328.5,316.5,327.9,319.4,325.5,320.8z"/>
			<path class="st16" d="M325.5,320.8l-85.9,49.6c-2.4,1.4-5.7,0.8-7.2-1.6c-5.4-8.3-9.1-18.7-10.9-31.1l-3.4-22.8
				c-0.4-2.7,1.2-6.1,3.6-7.4l86-49.7c2.4-1.4,4.7-0.3,5.1,2.4l3.4,22.8c1.4,11.8,5,22.2,10.8,31.1
				C328.5,316.5,327.9,319.4,325.5,320.8z"/>
			<path class="st2" d="M239.7,370.4l85.9-49.6c2.4-1.4,3-4.3,1.5-6.6c-2.8-4.3-5.1-9-6.8-13.9l-26.6-7.5L281.7,319l12.8,10.3
				l-44.8-23.6l-22.9,52.1c1.6,4,3.5,7.6,5.6,11C233.9,371.1,237.3,371.7,239.7,370.4z"/>
			<path class="st2" d="M275.7,287.2c3.2-1.8,6.2-0.3,6.7,3.4c0.6,3.7-1.6,8.2-4.7,10c-3.2,1.8-6.2,0.3-6.7-3.4
				C270.4,293.5,272.5,289,275.7,287.2z"/>
		</g>
		<g>
			<g>
				<g id="XMLID_296_">
					<g id="XMLID_732_">
						<path id="XMLID_734_" class="st2" d="M301.8,350.2c-0.3,0-0.6,0-0.9,0c-0.7-0.1-1.3-0.3-1.7-0.6c-0.8-0.6-0.7-1.3,0.2-1.7l0,0
							c0.5-0.2,1.1-0.3,1.8-0.2c0.7,0.1,1.3,0.3,1.7,0.6c0.8,0.6,0.7,1.3-0.2,1.7C302.4,350.1,302.1,350.1,301.8,350.2z"/>
					</g>
					<g id="XMLID_726_">
						<path id="XMLID_727_" class="st2" d="M306.5,350.1c-1.1-0.1-2.1,0-2.9,0.3l-0.9,0.4c-1.5,0.6-1.7,1.9-0.4,2.9l0.5,0.3
							c1.6,0.2,3.4,0.1,4.7-0.4c1.4-0.6,2.3-1.2,2.4-2.1l-0.6-0.4C308.6,350.6,307.6,350.2,306.5,350.1z"/>
					</g>
				</g>
				<path class="st2" d="M308.1,346.3l-3.2,0.2l-0.9,0.8c-0.1,0.1-0.1,0.4,0,0.5l0.9,0.7l3.3-0.1L308.1,346.3z M304.7,347.7
					c-0.1,0-0.2-0.1-0.2-0.2s0.1-0.2,0.2-0.2c0.1,0,0.2,0.1,0.2,0.2S304.8,347.7,304.7,347.7z"/>
			</g>
			<g>
				<path class="st2" d="M324.8,340.6c0,0.5-0.6,0.9-1,1.1c-0.6,0.4-1.4,0.6-2.3,0.7C320.8,341.6,322.2,340,324.8,340.6z"/>
				<path class="st2" d="M324.9,337.5c-2.4-1.9-6.1-2.7-8.7-1.2c-2.6,1.5-3.1,4.6-0.7,6.6c2.4,2,6.7,2,9.2,0.5
					C327.3,341.9,327.3,339.4,324.9,337.5z M320.9,337c0.4-0.2,1-0.1,1.3,0.2c0.3,0.3,0.3,0.8-0.1,1s-1.1,0.2-1.4-0.2
					C320.4,337.8,320.5,337.3,320.9,337z M316.2,340.7c-0.3-0.3-0.2-0.8,0.2-1.1c0.4-0.2,1-0.1,1.3,0.2c0.3,0.3,0.3,0.8-0.1,1
					C317.2,341.1,316.5,341,316.2,340.7z M324.1,342.1c-1,0.6-2.3,0.9-3.6,0.9c-1.2,0-2.3-0.2-3.2-0.7l6.7-3.8
					c0.9,0.7,1.3,1.5,1.3,2.1C325.2,341.3,324.6,341.8,324.1,342.1z"/>
			</g>
			<path class="st2" d="M339,328.7c-0.2-0.3-0.5-0.7-0.9-1c-1.7-1.4-4.2-1.9-6.1-0.8c-1.8,1-2.2,3.2-0.5,4.6
				c0.2,0.2,0.4,0.3,0.7,0.4c0,0,0,0,0,0c3,1.7,8.5,1.9,8.5,1.9S340.7,331,339,328.7z M336.4,330.6c-0.9,0.5-2.3,0.5-3.1-0.2
				c-0.8-0.7-0.6-1.7,0.2-2.2c0.9-0.5,2.1-0.3,2.9,0.4C337.2,329.2,337.3,330.1,336.4,330.6z"/>
		</g>
	</g>
</g>
<g id="Character">
	<g id="Character_4_" class="st20">
		<g class="st21">
			<g id="XMLID_736_">
				<g id="XMLID_738_">
					<g id="XMLID_739_">
						<path id="XMLID_1047_" class="st22" d="M622.7,128.2l-12.9,37.5c-0.4,1.1-1.9,1.1-2.3,0l-12.7-37.8L622.7,128.2z"/>
						<path id="XMLID_1044_" class="st6" d="M607.5,165.7c0.4,1.1,1.9,1.1,2.3,0l2.5-7.3l0,0c-2.2,1.2-4.9,1-7-0.4l-0.6-0.4
							L607.5,165.7z"/>
						<path id="XMLID_1043_" class="st2" d="M595.3-39.4l0,3.7l0,4.4l-0.5,159.2c2.9,3.4,7.3,5.1,11.7,5.5
							c6.7,0.7,13.6-1.5,16.1-5.2l0.4-159.1l0-8.5C622.8-33.9,595-33.9,595.3-39.4z"/>
						<path id="XMLID_1036_" class="st18" d="M595.2-25.4l0,8.2c-0.1,2.4,5,3.9,10.8,4.4c7.8,0.7,16.9-1.4,17-4.5l0-6l0-2.2
							c-0.1,3.1-9.3,5.3-17,4.5c-5.6-0.5-10.5-2-10.8-4.2l0,0C595.2-25.3,595.2-25.4,595.2-25.4z"/>
						<path id="XMLID_1033_" class="st2" d="M595.2-23.4c-0.2,5.5,27.6,5.5,27.8-0.1l0-8.2c-0.2,5.5-28,5.6-27.8,0.1L595.2-23.4z"/>
						<path id="XMLID_742_" class="st18" d="M595.3-39.4l0,8.1c-0.2,5.4,26.6,5.6,27.8,0.4c0-0.1,0-0.2,0-0.3l0-8.2
							C622.8-33.9,595-33.9,595.3-39.4z"/>
					</g>
				</g>
				<path class="st23" d="M623.2-74.1c0-0.1,0-0.3,0-0.3c0-4-6.2-7.2-13.9-7.2c-7.7,0-13.9,3.2-13.9,7.2v3.7l-0.1,31.3
					c-0.1,2.4,4.9,3.9,10.7,4.5c7.8,0.8,16.9-1.3,17.1-4.4c0,0,0,0,0,0l0.1-34.5C623.2-74,623.2-74.1,623.2-74.1z"/>
				<ellipse class="st24" cx="609.3" cy="-74.5" rx="13.9" ry="7.2"/>
				<path id="XMLID_741_" class="st9" d="M623.1-30.9l0.2-43.2c-0.2,3.4-6,6.6-12.3,6.8l-0.4,200.9l-0.7,32.2l12.9-37.5l0,0
					c0,0,0,0,0,0L623.1-30.9z"/>
			</g>
			<g>
				<path class="st25" d="M578.1,2.6c5.3-0.8,11.8,3.2,16.4,9.6s20.4,21.9,22.1,26.8c1.3,3.6,0.5,10.4-6.9,7.2
					c-7.2-3.1-30.2-25.6-30.2-25.6L578.1,2.6z"/>
				<path class="st26" d="M575.6,2.6c0,0,3.4-0.7,5.2-0.6c1.8,0.1,5.9,1.2,10.2,5.3c4.2,4.1,15.2,17.4,15.2,17.4s0.5,3.7-3.2,7.9
					c-3.7,4.2-7.1,4.2-7.1,4.2l-16.3-13.5L575.6,2.6z"/>
				<path class="st25" d="M611.4,31.7L623,14.8l0-12.4c0,0,2.6,0.9,3.6,4.8c1,4,2.3,8.6,1.8,12c-0.5,3.4-8.5,23.9-12.9,26.9
					C611.1,49.1,611.4,31.7,611.4,31.7z"/>
			</g>
		</g>
		<g class="st21">
			<g id="XMLID_1029_">
				<g id="XMLID_1031_">
					<polygon id="XMLID_1032_" class="st25" points="559.2,-3 561.5,11.2 575.6,10.5 573.5,-6.1 					"/>
				</g>
			</g>
			<g id="XMLID_879_">
				<g id="XMLID_1018_">
					<path id="XMLID_1019_" class="st27" d="M549.7-20.5c0,0-3.4,5.1-3,5.6c0.4,0.5,2.9,1,2.9,1L549.7-20.5z"/>
				</g>
				<g id="XMLID_965_">
					<path id="XMLID_1017_" class="st25" d="M559-34.6c-6.8,1.4-8.8,4.4-9.4,15.2c-0.7,11.3,0.5,14.8,2,16.4c1,1,6.6,1.2,9.4,0.4
						c3.5-1,11.5-3.8,15.2-9.5c4.4-6.7,5.5-15.7,0.8-19.5C570.4-36.7,561.8-35.2,559-34.6z"/>
				</g>
				<path class="st27" d="M559.3-2.2c0,0,1.9-0.3,3.6-0.9c0,0-1,1.3-3.4,2L559.3-2.2z"/>
			</g>
			<g id="XMLID_761_">
				<g id="XMLID_876_">
					<g id="XMLID_877_">
						<path id="XMLID_878_" class="st6" d="M549.2-31.2c0.9,0.5,1.9,0.9,3,1.2c1.7,0.5,1.4,1.1,1.6,2.6c0.2,1.4,0.9,2.7,1.9,3.6
							c0.6,0.6,1.1,0.6,1.3,1.5c0.2,0.9,0,1.9,0,2.8c0,1.9,1.2,3.3,1.8,0.8c0,0,1.1-4.2,4.6-3.7c3.5,0.5,3.8,4.5,2.2,7.6
							c-1,1.9-3.8,1.4-3.8,1.4s-0.6,5.2,3.7,9.5c0,0,3.5,2.6,9-0.1c3.2-4.1,4.4-6.3,6.3-9.5c2.4-4.2,4.5-9.5,3.7-14.5
							c-0.3-1.8-1.1-3.6-2.4-5c-0.9-1-0.9-1.2-1.1-2.5c-0.2-1.1-0.8-2.2-1.7-2.9c-1.4-1.1-3.4-1.4-5-0.7c0-1.7-1.5-3.2-3.2-3.7
							c-1.7-0.5-3.5,0-5.1,0.7c-0.9-1.6-2.7-2.7-4.5-2.9c-1.9-0.1-3.8,0.8-4.9,2.3c-0.5-0.8-1.4-1.3-2.4-1.4
							c-0.9-0.1-1.9,0.2-2.8,0.4c-0.7,0.2-1.5,0.5-2.2,0.9c-2.5,1.5-3.8,4.7-3.1,7.5C546.8-33.2,547.8-32,549.2-31.2z"/>
					</g>
				</g>
				<g id="XMLID_819_">
					<g id="XMLID_872_">
						<path id="XMLID_875_" class="st6" d="M581.1-32.3l4.1-2.4c-0.7-1.1-2.1-1.5-3.2-0.8C580.8-34.9,580.4-33.4,581.1-32.3z"/>
					</g>
				</g>
			</g>
		</g>
		<g id="XMLID_751_" class="st21">
			<path id="XMLID_760_" class="st6" d="M584.9,179.1c0,0.3,0.1,0.6,0.1,0.9c0.1,1.2,0.2,2.4,0.1,3.6c-0.1,0.8-0.3,2-1.1,2.4
				c-0.8,0.5-1.8,0.8-2.7,1c-2,0.5-4.3,0.3-6.2-0.6c-1.6-0.8-2.9-2-4.6-2.5c-1.8-0.5-3.6-0.7-5.4-0.9c-0.8-0.1-1.6-0.2-2.4-0.4
				c-0.6-0.2-1.2-0.5-1.7-0.8c-1.9-1-3.7-2.1-5.1-3.7c-0.9-1-1.6-2.3-1.8-3.7c-0.2-0.8-0.5-3.1,0.9-3.1c6.5,0.3,13,1.7,19.6,1.6
				c0.4,0,0.9,0,1.3,0.1c0.8,0.1,1.5,0.6,2.2,1c0.8,0.6,1.1,0.6,2,0.5c1.1-0.1,2.3-0.2,3.4,0.1c0.5,0.1,1,0.3,1.2,0.8
				c0.1,0.2,0.1,0.3,0.1,0.5C584.7,177,584.8,178,584.9,179.1z"/>
			<g id="XMLID_758_">
				<path id="XMLID_759_" class="st25" d="M584.2,171.2l-0.3,4.9c-0.3,1.9-6.7,3-8-0.3l-0.6-5.6L584.2,171.2z"/>
			</g>
			<g>
				<path id="XMLID_756_" class="st6" d="M559.8,190.8c0,0,0.8,2.6,1.2,4.8c0.3,1.8,0.8,4.8,0.1,6.1c-0.7,1.3-3.1,2.1-6.8,2
					c-2.4-0.1-6.3,1.5-8.9,2.9c-2.7,1.4-8.3,1.9-11.1,1.5c-3.3-0.5-6.7-2.5-7.3-3.9c-0.5-1.4,0.2-2.8,8.2-6c0.1,0,11-3.3,14.9-7.4
					L559.8,190.8z"/>
				<path id="XMLID_755_" class="st25" d="M559.9,187.6c0,0-0.1,2.2-0.1,3.4c0,1.2-1.5,3.1-5.3,2.8c-2.7-0.2-4.5-0.9-4.4-3.1
					l0.1-3.2L559.9,187.6z"/>
			</g>
			<g id="XMLID_752_">
				<path id="XMLID_754_" class="st2" d="M586.8,133.3c-1.1-9.6-2-15.1-2-15.1s0.2-13.4,1-25.9c0.8-13.5,0.7-30.4,1-33.8
					c0,0-43.3-9.2-43.6,6.4c-0.4,18.1,0.8,55.7,1.1,60.6c0.4,6.9,0.4,14,1.5,25.1c1.1,11,4.5,37,4.5,37c4.9,2.8,9.7,0,9.7,0
					s3.8-31.1,3.6-39c-0.2-9.7-1.6-17.1-1.6-17.1l3.4-35.2c0,0,1.3,10.9,1.7,17.7c0.4,6.9,1.3,11,3,23.8c1.5,11.1,5.2,34.5,5.2,34.5
					c4.9,2.8,9.2-0.4,9.2-0.4S587.9,142.9,586.8,133.3z"/>
				<path id="XMLID_743_" class="st4" d="M586.8,133.3c-1.1-9.6-2-15.1-2-15.1s0.2-13.4,1-25.9c0.8-13.5,0.7-30.4,1-33.8
					c0,0-43.3-9.2-43.6,6.4c-0.4,18.1,0.8,55.7,1.1,60.6c0.4,6.9,0.4,14,1.5,25.1c1.1,11,4.5,37,4.5,37c4.9,2.8,9.7,0,9.7,0
					s3.8-31.1,3.6-39c-0.2-9.7-1.6-17.1-1.6-17.1l3.4-35.2c0,0,1.3,10.9,1.7,17.7c0.4,6.9,1.3,11,3,23.8c1.5,11.1,5.2,34.5,5.2,34.5
					c4.9,2.8,9.2-0.4,9.2-0.4S587.9,142.9,586.8,133.3z"/>
				<path id="XMLID_753_" class="st28" d="M581.8,79.9c0,0-3,4.9-12.1,8.6l-2.5,8.5l-0.3,14.9c-0.3-4.8-0.9-10.1-1.6-15.6l1-8.8
					C566.3,87.5,576.4,84.5,581.8,79.9z"/>
			</g>
		</g>
		<g id="XMLID_748_" class="st21">
			<g id="XMLID_749_">
				<path id="XMLID_750_" class="st15" d="M588.4,11.8c-1.7-6.2-5.8-8.9-10.4-9.2c-1.2-0.1-3.5,0-3.5,0c0.3,2.6-7.8,4.5-14,3
					c-1.9,0.5-5,1.2-6.6,1.7c-4.5,1.5-9.9,7.1-10.6,21.9c0,0-0.7,31.7-0.5,40.8c11.1,4.7,21.9,5.3,28.4,4
					c13.5-2.6,15.8-8.4,15.8-8.4s-0.1-8-0.6-20.9C588.6,26.5,589.2,14.5,588.4,11.8z"/>
			</g>
		</g>
		<g class="st21">
			<path class="st25" d="M535.7,64.2c2.6,1.8,3.7,3.8,4,7c0.2,2.9,0.2,6,1.5,8.6c0.2,0.4,1.4,1.4,1.9,1.3l0-3.7
				c0.7-1,2.8-2.7,3.3-3.8c0.9-1.8-0.1-4,0.4-6c0.2-0.8,0.7-1.5,0.7-2.4c0-2.1-0.6-4.2-2.3-5.5c-2-1.6-3.8-3.6-5.6-5.4
				c-2.3-2.3-5.5-5.8-7.9-8.1l15.6-14.9c1.8-1.7,3.3-3.7,4.4-5.9c2.5-4.9,6-13.5,2.1-18c-5.6,0-8.7,0.9-14.4,7.5
				c-4.9,5.7-20.5,24.4-22.5,27.6c-2,3.2-3.2,5.3,0.7,8.9c2.7,2.5,6.5,5.1,9.8,7.5C530.2,60.6,533.1,62.4,535.7,64.2z"/>
			<path class="st27" d="M531.8,46.2c0,0-2.1,2.1-4.8,3.3c0,0,3.6-0.5,5.9-2.2L531.8,46.2z"/>
			<path class="st26" d="M555.7,6.8c0,0-3.4-0.2-6.7,0.5c-3.4,0.7-5.6,2.4-11.5,9s-9.9,12-9.9,12s-1.7,3.7,3,7.9
				c4.7,4.2,8.9,3.5,8.9,3.5l13.1-12.8C552.6,27.1,561.9,17.2,555.7,6.8z"/>
		</g>
	</g>
	<g>
		<g>
			<path class="st29" d="M504.7,484.2c-7.4,3.5-15.6,6.7-24.7,9.4c-2.6,0.8-5.2,1.5-7.9,2.2c-1,0.2-2.1,0.5-3.2,0.8
				c-1.2,0.3-2.5,0.6-3.8,0.9c-0.9,0.2-1.8,0.4-2.7,0.6c-1.2,0.3-2.4,0.5-3.7,0.8c-10.5,2.1-21.3,3.4-32.1,3.9
				c-1.4,0.1-2.8,0.1-4.2,0.2c-0.9,0-1.8,0-2.7,0.1c-1.4,0-2.9,0-4.3,0h-0.1c-3.3,0-6.7-0.1-10-0.2c-0.2,0-0.5,0-0.7,0
				c-0.6,0-1.1-0.1-1.7-0.1c-11.7-0.6-23.3-2.2-34.4-4.7c-1.8-0.4-3.7-0.9-5.5-1.3c-2.7-0.7-5.4-1.4-8-2.2c-2-0.6-3.9-1.2-5.8-1.9
				c-0.1-0.1-0.3-0.1-0.4-0.2c-0.4-0.1-0.9-0.3-1.3-0.4c-8.3-2.9-16.3-6.5-23.6-10.6c-11.8-6.7-22.2-15-30.3-24.7
				c-13.7-16.5-21.1-37.5-18.9-62.9c7.5-87.5,47.1-129.8,47.1-129.8c60.5-87.7,148.5-71.3,177.8-25.2
				c26.2,41.1,50.5,122.7,55.5,144.7C564.3,423,552.2,461.4,504.7,484.2z"/>
			<g>
				<g>
					<polygon class="st30" points="290.6,374.9 276.2,371.2 259.9,385.9 273.1,396.3 290.5,390.3 					"/>
					<path class="st30" d="M278.4,371.8l-13.7-3.6c-1.3-0.3-2.6,0.6-2.7,1.8l0,0c0,1.1,0.5,2,1.5,2.5l9.2,4.8L278.4,371.8z"/>
					<path class="st30" d="M267.2,381.3l-14.9,4.5l-7.7-1.6c-1.1-0.2-2.3,0.1-3,0.9l0,0c-1,1-0.7,2.6,0.5,3.3l6.2,3.4
						c1.5,0.8,3.2,1.1,4.9,0.7l12.1-2.6L267.2,381.3z"/>
					<path class="st30" d="M270.6,385.5l-14.9,4.5l-7.7-1.6c-1.1-0.2-2.3,0.1-3,0.9l0,0c-1,1-0.7,2.6,0.5,3.3l6.2,3.4
						c1.5,0.8,3.2,1.1,4.9,0.7l12.1-2.6L270.6,385.5z"/>
					<path class="st30" d="M275.4,387.5l-14.9,4.5l-7.7-1.6c-1.1-0.2-2.3,0.1-3,0.9l0,0c-1,1-0.7,2.6,0.5,3.3l6.2,3.4
						c1.5,0.8,3.2,1.1,4.9,0.7l12.1-2.6L275.4,387.5z"/>
					<path class="st30" d="M278.6,388.9l-12,6l-6.8-0.2c-1,0-1.9,0.4-2.5,1.2l0,0c-0.7,1-0.2,2.3,1,2.8l5.8,2
						c1.4,0.5,2.9,0.4,4.3-0.1c0,0,21.1-8.4,21.1-10.3C289.5,387.6,278.6,388.9,278.6,388.9z"/>
				</g>
				<polygon class="st30" points="284.2,373.3 301.8,368.1 304.1,387.3 290.5,390.3 				"/>
				<g>
					<path class="st31" d="M465,497.5c-0.9,0.2-1.8,0.4-2.7,0.6c-1.2,0.3-2.4,0.5-3.7,0.8c-10.5,2.1-21.3,3.4-32.1,3.9
						c-1.4,0.1-2.8,0.1-4.2,0.2c-0.9,0-1.8,0-2.7,0.1c-1.4,0-2.9,0-4.3,0l-3.3-40l-6.8-82.3c0,0,6.6-3.5,14.9-7.4
						c14.1-6.5,33.3-13.9,34.3-6.7C459.1,400.4,462.6,451.1,465,497.5z"/>
				</g>
				<g>
					<path class="st31" d="M427,375.9l-14.9,87l-6.8,39.8c-0.2,0-0.5,0-0.7,0c-0.6,0-1.1-0.1-1.7-0.1c-11.7-0.6-23.3-2.2-34.4-4.7
						c-1.8-0.4-3.7-0.9-5.5-1.3c-2.7-0.7-5.4-1.4-8-2.2c6-47.7,13.2-98.5,19.7-127.7c1.9-8.6,31.8,1.6,45.6,6.7
						C424.3,374.8,427,375.9,427,375.9z"/>
				</g>
				<path class="st32" d="M359,434.3l-3.1,29.8c0,0,20,9.7,49.4,9c29.3-0.7,63.9-12.3,63.9-12.3l-2.2-28.3L359,434.3z"/>
				<g>
					<path class="st33" d="M436.6,251.6l13,2.8c3.2,1.1,9.9,11,12,17.9c1.6,5.4,3.1,16.2,3.3,21.8l9.7,135.9
						c-63.6,21.4-118.8,4.2-118.8,4.2s1.8-100.1,7.9-154.6c1.2-10.9,7.9-19.8,11-21l27.5-9.7L436.6,251.6z"/>
				</g>
				<g>
					<g>
						<path class="st30" d="M427.7,253.3L427,228c0,0-5.2,3.4-9.9,4.3c-4.7,0.8-9.3-1.8-9.4-1.8c-0.1,0-5.5-3-5.5-3l0.2,27.5
							c0,0.3,5.3,3.7,5.2,4l8.9,1.5C411.3,258.7,427.7,253.6,427.7,253.3z"/>
					</g>
					<path class="st34" d="M401.1,228.4c0,0,7.7,15.9,16.8,14c9.5-2,9.9-16.1,9.9-16.1L401.1,228.4z"/>
					<path class="st30" d="M440.2,191.8c0,10.1-1.5,18.9-3,25.1c-1.5,6.1-5.5,10.3-11.3,13.7l-1.1,0.6c-6.1,3.6-14,3.7-20.2,0.2l0,0
						c-6.3-3.5-10.6-8.1-12-14.7c-2.5-11.8-2.7-25-2.7-25s-2.3-25.6,24.8-25.1C441.8,167.3,440.2,191.8,440.2,191.8z"/>
					<g>
						<path class="st30" d="M392.9,215.8c-4.8,3.9-14.8-11.6-10.2-15.7c4.6-4.2,7.9,2.6,7.9,2.6l0.9,4.9l1.4,6.6l0.4,1.5
							L392.9,215.8z"/>
						<g>
							<g>
								<path class="st35" d="M384.8,205.3c0,0,2-4,6.5,3"/>
							</g>
						</g>
					</g>
					<g>
						<path class="st30" d="M437.2,215.9c4.8,3.8,14.6-11.8,9.9-15.9c-4.7-4.1-7.8,2.7-7.8,2.7l-0.8,4.9l-1.3,6.6l-0.3,1.5
							L437.2,215.9z"/>
						<g>
							<g>
								<path class="st35" d="M445.2,205.3c0,0-2-4-6.4,3.1"/>
							</g>
						</g>
					</g>
					<g>
						<path class="st11" d="M405,214.6h18.7c0,0-1.5,6.3-9.4,6.3C407.7,220.9,405,214.6,405,214.6z"/>
						<g>
							<path class="st35" d="M413,206.5l0,3.1c0,0.8,0.7,1.4,1.5,1.2l1.7-0.3"/>
							<path class="st36" d="M405.9,202.2c0,1.2-1,2.1-2.2,2.1c-1.2,0-2.2-0.9-2.2-2.1c0-1.2,1-2.1,2.2-2.1
								C404.9,200.1,405.9,201,405.9,202.2z"/>
							<path class="st36" d="M426.9,202.2c0,1.2-1,2.1-2.2,2.1c-1.2,0-2.2-0.9-2.2-2.1c0-1.2,1-2.1,2.2-2.1
								C425.9,200.1,426.9,201,426.9,202.2z"/>
							<path class="st36" d="M420.6,192.6c0,0-0.8,2.1,2.5,2.6c2.6,0.3,4.2,0.5,5.6,1c0.8,0.3,1.8,0,2.2-0.5l0,0
								c0.4-0.5,0.4-1.1,0-1.5c-0.8-1-2.5-2.4-5.7-2.9C421.3,190.6,420.6,192.6,420.6,192.6z"/>
							<path class="st36" d="M407.7,192.6c0,0,0.8,2.1-2.5,2.6c-2.6,0.3-4.2,0.5-5.6,1c-0.8,0.3-1.8,0-2.2-0.5l0,0
								c-0.4-0.5-0.4-1.1,0-1.5c0.8-1,2.5-2.4,5.7-2.9C406.9,190.6,407.7,192.6,407.7,192.6z"/>
						</g>
					</g>
					<g>
						<path class="st37" d="M390.8,203.8c0,0,5.8-17.7,1.6-29.1C392.4,174.7,379.4,180.8,390.8,203.8z"/>
						<path class="st37" d="M439.1,203.8c0,0-7.3-17.7-3.1-29.1C436,174.7,449.2,179.4,439.1,203.8z"/>
					</g>
					<path class="st30" d="M402.3,249l-9.9,3.7c0,0,1.6,11,21,11.1c25.3,0.1,23.2-12.2,23.2-12.2l-13-3.4L402.3,249z"/>
				</g>
				<path class="st32" d="M386.2,189.2c0,0,11.4-3.8,28.7-3.8s28,3.8,28,3.8v-6.9c-1.3-11.9-12.6-20.8-25.3-20.8h-6.8
					c-12.5,0-23.1,8.9-24.5,20.7C386.1,185.2,385.9,187.7,386.2,189.2z"/>
				<path class="st33" d="M390,253.3l11-5.1v-7.1l11.9,4.5l1.4,5.5l1.8-5.5l13.3-4.5v7.1l9.3,3.9c0,0-3.2,15.7-25.7,14.4
					C390.4,265.3,390,253.3,390,253.3z"/>
				<polygon class="st30" points="441.5,315.6 427.4,306 415.5,317.3 430.5,331.6 				"/>
				<g>
					<polygon class="st30" points="430.8,311 427.6,298.3 410.7,288.7 403.6,297 403.6,307.7 415.7,317.6 					"/>
					<path class="st30" d="M411.4,295.7l-11.5-10.2c-1-0.9-0.7-2.5,0.6-3l0,0c1-0.4,2.1-0.2,3,0.4l10.1,7.7L411.4,295.7z"/>
					<path class="st30" d="M406.7,299.4l-11.5-10.2c-1-0.9-0.7-2.5,0.6-3l0,0c1-0.4,2.1-0.2,3,0.4l8.7,6.2L406.7,299.4z"/>
					<path class="st30" d="M404.3,304.6l-11.5-10.2c-1-0.9-0.7-2.5,0.6-3l0,0c1-0.4,2.1-0.2,3,0.4l8.7,6.2L404.3,304.6z"/>
					<path class="st30" d="M403.9,307.9l-9.8-8.7c-0.9-0.8-0.6-2.2,0.5-2.6l0,0c0.8-0.3,1.8-0.2,2.5,0.3l7.5,5.3L403.9,307.9z"/>
					<path class="st30" d="M427.6,298.3l-0.6-13c-0.1-1.2-1.4-1.9-2.5-1.4l0,0c-0.8,0.4-1.4,1.2-1.5,2l-1.1,9.4L427.6,298.3z"/>
				</g>
				<path class="st32" d="M474.7,279.1c-7.6-18.7-25-24.7-25-24.7l13.7,67.2l-28.2-13.7l-13.3,20.4c0,0,43,34.1,43,34.1
					c7.6,6,18.9,4.7,24.7-2.9v0c3.7-4.8,4.9-10.9,3.5-16.6C489,326.6,480.3,293,474.7,279.1z"/>
				<path class="st32" d="M374.8,258.7c0,0-12.8,2-18.9,13.5c-6.1,11.5-22.5,72.7-22.5,72.7L294.2,364l9.9,23.2l53.6-13.4
					c0,0,5.3-72.3,8.9-90.1C370.2,266,374.8,258.7,374.8,258.7z"/>
				<path class="st37" d="M437.6,199.3c0,0-2.4,11.8-7.9,21.6c-5.1,9.2-14.2,9.9-15.3,10c-1.1-0.1-10.1-0.8-15.3-10
					c-5.5-9.7-7.9-21.6-7.9-21.6s-1.7,2.3-1.3,5c0,0,0.3,14.9,4.9,23.9c4.3,8.3,17.6,9.2,19.4,9.2v0c0,0,0,0,0.1,0
					c0.1,0,0.1,0,0.1,0v0c1.8-0.1,15.1-0.9,19.4-9.2c4.6-8.9,4.9-23.9,4.9-23.9C439.3,201.6,437.6,199.3,437.6,199.3z"/>
			</g>
		</g>
		<g class="st20">
			<path class="st38" d="M290.7,238H359c7.5,0,13.7-5.8,13.7-13v-42.8c0-7.2-6.1-13-13.7-13h-34.1h-34.1c-7.5,0-13.7,5.8-13.7,13
				V225C277,232.2,283.1,238,290.7,238z"/>
			<path class="st38" d="M357.5,235.1l5.6,12.7c0.7,1.6-1.2,3.1-2.8,2.2l-19.2-11.4c-1.5-0.9-1-3.1,0.8-3.3l13.6-1.3
				C356.4,234,357.2,234.4,357.5,235.1z"/>
			<text transform="matrix(1.0542 0 0 1 283.082 196.9043)" class="st21"><tspan x="0" y="0" class="st11 st39 st40">as-salaam</tspan><tspan x="0" y="22.5" class="st11 st39 st40">‘alaykum</tspan></text>
		</g>
		<line class="st41" x1="407.5" y1="292.8" x2="410.6" y2="295.7"/>
		<line class="st41" x1="396.5" y1="290.3" x2="406.7" y2="299.4"/>
		<line class="st41" x1="394.6" y1="296.6" x2="404.3" y2="304.6"/>
		<line class="st41" x1="429.2" y1="308.7" x2="427.6" y2="310.3"/>
		<path class="st41" d="M254.1,396.8l-3.8-2.2c0,0-0.7-2.9,1.9-3.9c2.6-1,7.6,2,7.6,2l6.7-2.2"/>
		<path class="st41" d="M245.6,389.5c0,0,1.7-2.1,3.6-1.7c1.8,0.3,7.7,2.5,7.7,2.5l4.1-1.9"/>
		<line class="st41" x1="257.9" y1="387.1" x2="270.2" y2="391.8"/>
		<path class="st41" d="M257.3,397.8c0,0,0.1-3.2,2.5-3.1s7.4,0.6,7.4,0.6s11.8-11,18.8-10.9"/>
		<line class="st41" x1="271" y1="376.5" x2="277.2" y2="378.5"/>
	</g>
</g>
</svg>
