<?xml version="1.0" encoding="utf-8"?>
<!-- Generator: Adobe Illustrator 24.0.2, SVG Export Plug-In . SVG Version: 6.00 Build 0)  -->
<svg version="1.1" id="Layer_1" xmlns="http://www.w3.org/2000/svg" xmlns:xlink="http://www.w3.org/1999/xlink" x="0px" y="0px"
	 viewBox="0 0 538 563" style="enable-background:new 0 0 538 563;" xml:space="preserve">
<style type="text/css">
	.st0{fill:#FCAE3D;}
	.st1{fill:#F78686;}
	.st2{fill:#DD6F6F;}
	.st3{fill:#FF9999;}
	.st4{fill:#FFB3A4;}
	.st5{fill:#405B66;}
	.st6{fill:#FCFCD9;}
	.st7{fill:#B1E6F2;}
	.st8{opacity:0.6;fill:#BA906E;}
	.st9{fill:#934242;}
	.st10{fill:#CEA680;}
	.st11{fill:#FFF2DC;}
	.st12{fill:#EAC4A9;}
	.st13{fill:#E5BC9A;}
	.st14{fill:#EF8333;}
	.st15{fill:#FFE269;}
	.st16{fill:#FFD44D;}
	.st17{fill:#564736;}
	.st18{fill:#E84949;}
	.st19{fill:#BCB237;}
	.st20{fill:#FCEC5B;}
	.st21{fill:#EDE148;}
</style>
<g>
	<path class="st0" d="M147.1,157.7c0.8,2.2,1.9,4.2,3.3,5.9l-6.2,13.6l10.8,5l11.3-11.2c2.5,0.1,5.1-0.1,7.9-0.7l3.6,10l15.3-7.2
		l3.6-13.3c2.8-2.1,5.4-4.4,7.9-6.8l11.3,0.5l10.8-15.3l-6.2-7.7c1.4-3,2.5-6,3.3-9l12.4-9.2V97.9l-12.4,2.5
		c-0.8-2.2-1.9-4.2-3.3-5.9l6.2-13.5l-10.8-5l-11.3,11.2c-2.5-0.1-5.1,0.1-7.9,0.7l-3.6-10L177.8,85l-3.6,13.3
		c-2.8,2.1-5.4,4.4-7.9,6.8l-11.3-0.5L144.2,120l5.9,7.4c-1.4,3-3,6.3-3.8,9.3l-11.5,9.2v14.4L147.1,157.7z M167.2,137.7
		c0-9.5,8.2-21,18.2-25.7c10.1-4.8,18.2-1,18.2,8.5c0,9.5-8.2,21-18.2,25.7C175.4,150.9,167.2,147.1,167.2,137.7z"/>
	<path class="st1" d="M144.4,230.2c0.4,1.2,1,2.2,1.8,3.2l-3.3,7.3l5.8,2.7l6.1-6c1.3,0.1,2.8-0.1,4.2-0.4l1.9,5.3l8.2-3.9l1.9-7.2
		c1.5-1.1,2.9-2.3,4.2-3.7l6.1,0.3l5.8-8.2l-3.3-4.1c0.7-1.6,1.3-3.2,1.8-4.8l6.7-5v-7.7l-6.7,1.3c-0.4-1.2-1-2.2-1.8-3.2l3.3-7.3
		l-5.8-2.7l-6.1,6c-1.3-0.1-2.8,0.1-4.2,0.4l-1.9-5.3l-8.2,3.9l-1.9,7.2c-1.5,1.1-2.9,2.3-4.2,3.7l-6.1-0.3l-5.8,8.2l3.1,4
		c-0.7,1.6-1.6,3.4-2,5l-6.2,4.9v7.7L144.4,230.2z M155.1,219.5c0-5.1,4.4-11.3,9.8-13.8c5.4-2.6,9.8-0.5,9.8,4.6
		c0,5.1-4.4,11.3-9.8,13.8C159.5,226.6,155.1,224.5,155.1,219.5z"/>
	<path class="st1" d="M180.8,257.1c0.3,0.8,0.7,1.6,1.2,2.2l-2.3,5.1l4,1.9l4.2-4.2c0.9,0,1.9,0,2.9-0.2l1.3,3.7l5.7-2.7l1.3-5
		c1-0.8,2-1.6,2.9-2.5l4.2,0.2l4-5.7l-2.3-2.9c0.5-1.1,0.9-2.2,1.2-3.3l4.6-3.4v-5.4l-4.6,0.9c-0.3-0.8-0.7-1.6-1.2-2.2l2.3-5.1
		l-4-1.9l-4.2,4.2c-0.9,0-1.9,0-2.9,0.2l-1.3-3.7l-5.7,2.7l-1.3,5c-1,0.8-2,1.6-2.9,2.5l-4.2-0.2l-4,5.7l2.2,2.8
		c-0.5,1.1-1.1,2.4-1.4,3.5l-4.3,3.4v5.4L180.8,257.1z M188.3,249.6c0-3.5,3-7.8,6.8-9.6c3.8-1.8,6.8-0.4,6.8,3.2
		c0,3.5-3,7.8-6.8,9.6C191.3,254.5,188.3,253.1,188.3,249.6z"/>
	<g>
		<path class="st2" d="M418,184.6c0-4.1-2.7-7.9-7.1-10c-4.4-2.1-9.7-2.1-14.1,0l-325,153.6c-9.2,4.4-14.9,12.4-14.9,21.2l0,149.6
			c0,5.2,3.4,9.9,8.8,12.5c5.5,2.6,16.2,10.2,21.6,7.6l313.7-157.7c10.4-4.9,16.8-14,16.8-23.9L418,184.6z"/>
		<path class="st1" d="M411,174.6c-4.4-2.1-9.7-2.1-14.1,0l-325,153.6c-8.6,4-14,11.3-14.8,19.2c0.6-0.1,1.2-0.2,1.8-0.2
			c18.5,0,33.5,46.7,33.5,104.2c0,21.6-2.1,41.7-5.8,58.4l314.4-148.6c10.4-4.9,16.8-14,16.8-23.9l0-152.8
			C418,180.5,415.3,176.6,411,174.6z"/>
		<path class="st3" d="M430.3,191.3c0-4.1-2.7-7.9-7.1-10c-4.4-2.1-9.7-2.1-14.1,0L84.2,334.8c-9.2,4.4-14.9,12.4-14.9,21.2l0,149.6
			c0,5.2,3.4,9.9,8.8,12.5c5.5,2.6,12.2,2.6,17.7,0l317.7-150.1c10.4-4.9,16.8-14,16.8-23.9L430.3,191.3z"/>
		<path class="st4" d="M78.1,518.1c5.5,2.6,12.2,2.6,17.7,0l117.5-55.5l132-251.1l-152,71.8l-121,230.2
			C73.7,515.3,75.7,516.9,78.1,518.1z"/>
		<polygon class="st5" points="397.5,197 111.8,332 111.8,500.2 397.5,365.2 		"/>
		<polygon class="st6" points="394.3,200.4 115,332.4 115,496.8 394.3,364.8 		"/>
		<polygon class="st5" points="392.3,202.5 117,332.6 117,494.7 392.3,364.6 		"/>
		<g>
			<path class="st7" d="M244.9,361.7v50.5l-7.7,3.6l-30.1-11.3c-5.4-2-9.7-3.1-12.9-3.2c-3.2-0.1-6.4,0.6-9.8,2.2
				c-4.1,1.9-7.6,4.7-10.4,8.3c-2.8,3.6-4.2,7.3-4.2,11c0,5.4,1.5,8.7,4.4,9.8c2.9,1.2,7.1,0.5,12.4-2v10.1l-0.3,0.3
				c-7.1,3.6-13.1,4.2-18,1.8c-4.9-2.3-7.3-7.6-7.3-15.8c0-7,2.2-13.6,6.5-19.8c4.3-6.2,9.9-10.9,16.6-14.1c4.5-2.1,9-3,13.6-2.7
				c4.5,0.4,9.4,1.6,14.6,3.7l23.7,9.3l0.3-0.2v-37.4L244.9,361.7z"/>
			<path class="st7" d="M207.5,365.2l-45.5,17v-39l10-4.7v30l23.3-8.4c-1.3-1-2.4-2.3-3.2-3.9c-0.9-1.6-1.3-3.7-1.4-6.3
				c-0.1-7.1,2.4-13.9,7.5-20.4c5-6.5,11.8-11.8,20.4-15.8c8.3-3.9,15-5,20-3.2c5,1.8,7.6,6.7,7.6,14.7c0,6.6-1.9,13-5.7,19.2
				c-3.8,6.2-9.5,11-16.9,14.3l-0.3,0v-9.5c4.5-2.1,8-5,10.5-8.6c2.5-3.6,3.7-7.4,3.7-11.2c0-4.4-1.7-7.1-5-8
				c-3.3-0.9-7.9,0-13.7,2.8c-5.3,2.5-9.7,5.8-13.1,9.9c-3.4,4.1-5.1,8.3-5.1,12.7c0,4.1,0.7,6.8,2,8c1.3,1.2,3.4,1.6,6.1,1.2
				L207.5,365.2z"/>
			<path class="st7" d="M266.9,414.3l2.7-1.5c-1-0.1-1.7-0.5-2.2-1.1c-0.5-0.6-0.8-1.4-0.8-2.5c0-1.8,0.6-3.5,1.7-5
				c1.1-1.5,2.9-2.9,5.3-4l11.4-5.4v3.1l-11.3,5.3c-1.6,0.7-2.7,1.6-3.4,2.5c-0.7,0.9-1,2-1,3.2c0,0.9,0.2,1.6,0.7,2
				c0.5,0.5,1.1,0.7,1.9,0.7l13.1-6.2v3.1l-18,8.5V414.3z"/>
			<path class="st7" d="M275.8,395.5c-2.7,1.3-4.8,1.6-6.6,1.1c-1.7-0.5-2.6-2-2.6-4.3c0-2.3,0.9-4.6,2.6-6.8
				c1.7-2.2,3.9-3.9,6.6-5.1l0.4-0.2c2.7-1.3,4.9-1.6,6.6-1.1c1.7,0.5,2.6,2,2.6,4.3c0,2.3-0.9,4.6-2.6,6.8
				c-1.7,2.2-3.9,3.9-6.6,5.1L275.8,395.5z M276.1,392.2c1.9-0.9,3.5-2,4.7-3.4c1.2-1.3,1.9-2.8,1.9-4.2c0-1.5-0.6-2.3-1.9-2.5
				c-1.2-0.2-2.8,0.2-4.7,1.1l-0.4,0.2c-1.9,0.9-3.4,2-4.7,3.4c-1.3,1.4-1.9,2.8-1.9,4.2c0,1.5,0.6,2.3,1.9,2.4
				c1.2,0.2,2.8-0.2,4.7-1.1L276.1,392.2z"/>
			<path class="st7" d="M279.6,369.4l1.3-0.9v-0.1l-1.3,0.3l-12.7,2.1v-3.1l18-2.3v2.3l-18,14.8v-3.2L279.6,369.4z"/>
			<path class="st7" d="M285.3,349.4c0,2.3-0.8,4.6-2.5,6.8c-1.7,2.2-3.8,3.9-6.5,5.1l-0.7,0.3c-2.6,1.2-4.7,1.5-6.4,0.9
				c-1.7-0.6-2.6-1.9-2.6-3.9c0-2.3,0.7-4.3,2.2-6.2c1.5-1.9,3.4-3.4,5.9-4.5l2-1v11l0.1,0c1.7-0.8,3.1-1.9,4.3-3.2
				c1.1-1.3,1.7-2.7,1.7-4.1c0-1-0.2-1.9-0.5-2.5c-0.3-0.6-0.8-1.1-1.3-1.4l2.1-2.2c0.6,0.3,1.2,0.8,1.6,1.6
				C285,346.9,285.3,348,285.3,349.4z M269.2,357.5c0,1,0.5,1.7,1.4,2c0.9,0.3,2.1,0.2,3.5-0.3l0.1-0.1v-7.8l-0.4,0.2
				c-1.3,0.6-2.4,1.4-3.2,2.5C269.6,355.1,269.2,356.2,269.2,357.5z"/>
			<path class="st7" d="M266.9,345.5l2.4-1.3c-0.9-0.1-1.5-0.5-2-1.2c-0.5-0.6-0.7-1.5-0.7-2.6c0-1.1,0.3-2.2,0.8-3.3
				c0.6-1.1,1.4-2.1,2.5-3c-1,0-1.8-0.4-2.4-1c-0.6-0.6-0.9-1.5-0.9-2.6c0-1.7,0.6-3.4,1.9-5c1.3-1.6,3.2-3,5.7-4.2l10.8-5.1v3.1
				l-10.8,5.1c-1.8,0.8-3,1.7-3.8,2.6c-0.7,0.9-1.1,1.9-1.1,3.1c0,1.1,0.4,1.7,1.2,2c0.8,0.3,1.8,0.2,2.9-0.2l0.1-0.1l11.4-5.4v3.1
				l-10.8,5.1c-1.7,0.8-2.9,1.7-3.7,2.6c-0.8,1-1.2,2-1.2,3.1c0,0.9,0.2,1.6,0.6,2c0.4,0.4,1,0.6,1.7,0.6l13.3-6.3v3.1l-18,8.5
				V345.5z"/>
			<path class="st7" d="M276.6,301.3c2.6-1.2,4.7-1.6,6.3-1.2c1.6,0.4,2.4,1.7,2.4,3.7c0,1.1-0.2,2.2-0.7,3.2c-0.5,1-1.1,2-2,3
				l2.4-0.7v2.5L259,324V321l10.1-4.8c-0.8-0.2-1.4-0.5-1.8-1.1c-0.4-0.6-0.6-1.4-0.6-2.5c0-2.1,0.9-4.1,2.7-6.1
				c1.8-2,4.1-3.7,7-5.1L276.6,301.3z M276.3,304.5c-2.1,1-3.7,2.1-5,3.5c-1.3,1.3-2,2.7-2,4.2c0,0.9,0.2,1.6,0.7,2
				c0.5,0.4,1.2,0.6,2,0.6l7.8-3.7c0.9-0.8,1.6-1.7,2.1-2.5c0.5-0.9,0.8-1.8,0.8-2.8c0-1.4-0.6-2.3-1.6-2.5c-1.1-0.2-2.5,0.1-4.4,1
				L276.3,304.5z"/>
			<path class="st7" d="M285.3,286.4c0,2.4-0.8,4.6-2.5,6.8c-1.7,2.2-3.8,3.9-6.5,5.2l-0.7,0.3c-2.6,1.2-4.7,1.5-6.4,0.9
				c-1.7-0.6-2.6-1.9-2.6-3.9c0-2.3,0.7-4.3,2.2-6.2c1.5-1.9,3.4-3.4,5.9-4.5l2-1v11l0.1,0c1.7-0.8,3.1-1.9,4.3-3.2
				c1.1-1.3,1.7-2.7,1.7-4.1c0-1-0.2-1.9-0.5-2.5c-0.3-0.6-0.8-1.1-1.3-1.4l2.1-2.2c0.6,0.3,1.2,0.8,1.6,1.6
				C285,283.9,285.3,285,285.3,286.4z M269.2,294.5c0,1,0.5,1.7,1.4,2c0.9,0.3,2.1,0.2,3.5-0.3l0.1-0.1v-7.8l-0.4,0.2
				c-1.3,0.6-2.4,1.4-3.2,2.5C269.6,292.1,269.2,293.2,269.2,294.5z"/>
			<path class="st7" d="M269.8,275.8l-0.1,1.6c0,0.8,0.2,1.4,0.6,1.8c0.4,0.4,1,0.5,1.7,0.5l12.8-6.1v3.1l-18,8.5v-2.7l2.6-1.5
				c-0.9,0-1.7-0.3-2.2-0.7c-0.5-0.5-0.8-1.1-0.8-2.1c0-0.2,0-0.5,0.1-0.7c0-0.2,0.1-0.4,0.1-0.6L269.8,275.8z"/>
		</g>
		<polygon class="st7" points="130,326.5 117,332.6 117,494.7 130,488.6 		"/>
		<path class="st8" d="M176.8,430.4c2.8,1.3,6.2,1.3,9,0l228.4-107.9c3.9-1.9,6.4-5.3,6.4-9l0-133.1c-1.2-0.3-2.5-0.5-3.8-0.6
			c-1.2-2.1-3.2-4-5.7-5.2c-4.4-2.1-9.7-2.1-14.1,0L158.5,287.3l13.8,5.9V424C172.3,426.6,174,429.1,176.8,430.4z"/>
		<path class="st9" d="M67,372.9c0-1.9-1.7-4.3-3.7-5.3c-2.1-1-3.7-0.2-3.7,1.7c0,1.9,1.7,4.3,3.7,5.3C65.3,375.6,67,374.8,67,372.9
			z"/>
		<polygon class="st9" points="65.3,458.8 59.8,456.2 59.8,492 65.3,494.6 		"/>
	</g>
	<g>
		<path class="st10" d="M442.7,56.9c0-2.7-1.8-5.2-4.6-6.5c-2.8-1.3-6.3-1.3-9.2,0L203.3,157c-5.5,2.6-8.8,7.4-8.8,12.5v224.9
			c0,2.6,1.7,5.1,4.5,6.4c2.8,1.3,6.2,1.3,9,0L436.4,293c3.9-1.9,6.4-5.3,6.4-9L442.7,56.9z"/>
		<path class="st11" d="M448.6,60.3c0-2.7-1.8-5.2-4.6-6.5c-2.8-1.3-6.3-1.3-9.2,0L209.2,160.5c-5.5,2.6-8.8,7.4-8.8,12.5v224.9
			c0,2.6,1.7,5.1,4.5,6.4c2.8,1.3,6.2,1.3,9,0l228.4-107.9c3.9-1.9,6.4-5.3,6.4-9L448.6,60.3z"/>
		<polygon class="st12" points="448.6,214.4 448.6,98.2 397,180.7 		"/>
		<polygon class="st13" points="448.1,23 200.1,140.1 200.1,194.1 448.1,76.9 		"/>
		<polygon class="st0" points="199.3,191.3 454.6,16.3 446.1,13 189.9,134.1 189.9,188 		"/>
		<polygon class="st14" points="189.9,134.7 189.9,188 199.3,191.3 281.8,134.7 		"/>
		<polygon class="st15" points="455.1,69.9 455.1,16 198.9,137.1 198.9,191 		"/>
		<path class="st16" d="M241.5,116.9l-42.6,20.1V191L349,120C309.6,123.6,272.6,122.3,241.5,116.9z"/>
		<g>
			<g>
				<path class="st17" d="M240.4,201.3l-2.6,1.3v-15.9l-4,1.9v-1.8l6.6-3.8V201.3z"/>
			</g>
			<g>
				<path class="st17" d="M268.5,244.9l-2.6,1.3l0-15.9l-4,1.9v-1.8l6.6-3.8V244.9z"/>
			</g>
			<g>
				<path class="st17" d="M267.9,274.9l-2.6,1.3v-15.9l-4,1.9l0-1.8l6.6-3.8V274.9z"/>
			</g>
			<g>
				<path class="st17" d="M268.5,304.4l-2.6,1.2v-15.9l-4,1.9v-1.8l6.6-3.8V304.4z"/>
			</g>
			<g>
				<path class="st17" d="M268.5,334.2l-2.6,1.3l0-15.9l-4,1.9v-1.8l6.6-3.8V334.2z"/>
			</g>
			<g>
				<path class="st17" d="M268.5,362.4l-2.6,1.3v-15.9l-4,1.9v-1.8l6.6-3.8V362.4z"/>
			</g>
			<g>
				<path class="st17" d="M287.9,265.5l-12.7,6v-1.7l6.4-9.7c1.1-1.7,1.9-3.1,2.3-4c0.4-0.9,0.6-1.7,0.6-2.5c0-0.9-0.3-1.6-0.9-1.9
					c-0.6-0.4-1.3-0.3-2.3,0.1c-1.3,0.6-2.3,1.4-3,2.4c-0.6,1-1,2-1,3.2l-2.5,1.2l0-0.1c0-1.6,0.5-3.1,1.7-4.8
					c1.2-1.6,2.8-2.9,4.8-3.9c1.8-0.8,3.2-1,4.2-0.5c1,0.5,1.6,1.4,1.6,2.9c0,1-0.3,2.2-0.9,3.5c-0.6,1.3-1.5,2.8-2.7,4.5l-5.1,7.7
					l0,0l9.4-4.4V265.5z"/>
			</g>
			<g>
				<path class="st17" d="M282.8,238.1l-2.6,1.3l0-15.9l-4,1.9v-1.8l6.6-3.8V238.1z"/>
			</g>
			<g>
				<path class="st17" d="M278.9,289.2l2.3-1.1c1.2-0.6,2-1.2,2.5-2c0.5-0.8,0.7-1.7,0.7-2.6c0-1.1-0.3-1.7-0.8-2
					c-0.6-0.3-1.4-0.2-2.5,0.3c-1,0.5-1.9,1.2-2.5,2c-0.6,0.9-0.9,1.8-0.9,2.7l-2.5,1.2l0-0.1c0-1.4,0.5-2.8,1.6-4.3
					c1.1-1.5,2.6-2.7,4.4-3.5c1.8-0.9,3.3-1.1,4.3-0.7c1.1,0.4,1.6,1.4,1.6,3.1c0,0.8-0.2,1.6-0.7,2.6c-0.5,1-1.2,1.9-2.2,2.8
					c1.2-0.2,2,0,2.5,0.5c0.5,0.5,0.7,1.3,0.7,2.3c0,1.7-0.6,3.3-1.8,4.8c-1.2,1.5-2.7,2.7-4.5,3.6c-1.8,0.8-3.3,1.1-4.4,0.7
					c-1.2-0.4-1.7-1.3-1.7-2.9l0-0.1l2.5-1.2c0,1,0.3,1.6,0.9,1.9c0.6,0.3,1.5,0.1,2.6-0.4c1.1-0.5,2-1.2,2.6-2.1c0.6-0.9,1-1.9,1-3
					c0-1.1-0.3-1.8-0.8-2.1c-0.6-0.3-1.5-0.1-2.7,0.5l-2.3,1.1V289.2z"/>
			</g>
			<g>
				<path class="st17" d="M285.8,319.9l2.7-1.3l0,2l-2.7,1.3v4.2l-2.6,1.2v-4.2l-8.8,4.2v-1.4L283,309l2.8-1.3V319.9z M277.2,323.9
					l6-2.8v-8.6l-0.1,0l-0.3,0.8L277.2,323.9z"/>
			</g>
			<g>
				<path class="st17" d="M276,350.6l1.1-10.6l9.8-4.6v2.2l-7.5,3.6l-0.6,5.5c0.4-0.5,0.9-0.9,1.4-1.4c0.5-0.4,1.1-0.8,1.8-1.1
					c1.8-0.9,3.2-1,4.3-0.4c1,0.6,1.6,1.9,1.6,3.8c0,1.8-0.5,3.6-1.6,5.2c-1.1,1.6-2.6,2.9-4.6,3.9c-1.7,0.8-3,1-4.1,0.7
					c-1.1-0.3-1.6-1.3-1.6-3l0-0.1l2.4-1.1c0,1,0.3,1.6,0.9,1.9c0.6,0.3,1.4,0.2,2.4-0.3c1.1-0.5,2-1.3,2.6-2.3
					c0.6-1,0.9-2.2,0.9-3.5c0-1.2-0.3-2-0.9-2.5c-0.6-0.5-1.5-0.4-2.6,0.1c-1,0.5-1.8,1-2.3,1.5c-0.5,0.5-0.8,1.1-1,1.8L276,350.6z"
					/>
			</g>
			<g>
				<path class="st17" d="M245.5,227.9l-12.7,6v-1.7l6.4-9.7c1.1-1.7,1.9-3.1,2.3-4c0.4-0.9,0.6-1.7,0.6-2.5c0-0.9-0.3-1.6-0.9-1.9
					s-1.3-0.3-2.3,0.1c-1.4,0.6-2.4,1.4-3,2.4c-0.6,1-1,2-1,3.2l-2.5,1.2l0-0.1c0-1.6,0.5-3.2,1.7-4.8c1.2-1.6,2.8-2.9,4.8-3.9
					c1.8-0.8,3.2-1,4.2-0.5c1,0.5,1.6,1.5,1.6,2.9c0,1-0.3,2.2-0.9,3.5c-0.6,1.3-1.5,2.8-2.7,4.5l-5.1,7.7l0,0l9.4-4.4L245.5,227.9z
					"/>
			</g>
			<g>
				<path class="st17" d="M236.5,250.9l2.3-1.1c1.2-0.6,2-1.2,2.5-2c0.5-0.8,0.7-1.7,0.7-2.6c0-1.1-0.3-1.7-0.8-2
					c-0.6-0.3-1.4-0.2-2.5,0.3c-1,0.5-1.9,1.2-2.5,2c-0.6,0.9-0.9,1.8-0.9,2.7l-2.5,1.2l0-0.1c0-1.4,0.5-2.8,1.6-4.3
					c1.1-1.5,2.6-2.7,4.4-3.5c1.8-0.9,3.3-1.1,4.3-0.7c1.1,0.4,1.6,1.4,1.6,3.1c0,0.8-0.2,1.6-0.7,2.6c-0.5,1-1.2,1.9-2.2,2.8
					c1.2-0.2,2,0,2.5,0.5c0.5,0.5,0.7,1.3,0.7,2.3c0,1.7-0.6,3.3-1.8,4.8c-1.2,1.5-2.7,2.7-4.5,3.6c-1.8,0.8-3.3,1.1-4.4,0.7
					c-1.2-0.4-1.7-1.3-1.7-2.9l0-0.1l2.5-1.2c0,1,0.3,1.6,0.9,1.8c0.6,0.3,1.5,0.1,2.6-0.4c1.1-0.5,2-1.2,2.6-2.1c0.6-0.9,1-1.9,1-3
					c0-1.1-0.3-1.8-0.8-2.1c-0.6-0.3-1.5-0.1-2.7,0.5l-2.3,1.1L236.5,250.9z"/>
			</g>
			<g>
				<path class="st17" d="M243.4,280.9l2.7-1.3v2l-2.7,1.3v4.2l-2.6,1.2v-4.2l-8.8,4.1v-1.4l8.6-16.8l2.8-1.3V280.9z M234.8,284.9
					l6-2.8v-8.6l-0.1,0l-0.3,0.8L234.8,284.9z"/>
			</g>
			<g>
				<path class="st17" d="M233.6,312.5l1.1-10.6l9.8-4.6v2.2L237,303l-0.6,5.5c0.4-0.5,0.9-0.9,1.4-1.4c0.5-0.4,1.1-0.8,1.8-1.1
					c1.8-0.9,3.2-1,4.3-0.4c1,0.6,1.6,1.9,1.6,3.8c0,1.8-0.5,3.6-1.6,5.2c-1.1,1.6-2.6,2.9-4.6,3.8c-1.7,0.8-3,1-4.1,0.7
					c-1.1-0.3-1.6-1.3-1.6-3l0-0.1l2.4-1.1c0,1,0.3,1.6,0.9,1.9c0.6,0.3,1.4,0.2,2.4-0.3c1.1-0.5,2-1.3,2.6-2.3
					c0.6-1,0.9-2.2,0.9-3.5c0-1.2-0.3-2-0.9-2.5c-0.6-0.5-1.5-0.4-2.6,0.1c-1,0.5-1.8,1-2.3,1.5c-0.5,0.5-0.8,1.1-1,1.8L233.6,312.5
					z"/>
			</g>
			<g>
				<path class="st17" d="M240.3,328c0.7-0.3,1.3-0.6,2-0.7c0.7-0.2,1.2-0.2,1.6-0.2l-0.6,2.2c-0.4,0-0.9,0-1.4,0.1
					c-0.5,0.1-1,0.3-1.7,0.6c-1.4,0.7-2.5,1.7-3.4,3.2c-0.9,1.5-1.3,3-1.3,4.7l0,0.3c0.6-0.7,1.2-1.4,2-2c0.7-0.6,1.5-1.1,2.4-1.5
					c1.7-0.8,3.1-0.9,4.2-0.3c1,0.6,1.6,1.8,1.6,3.6c0,1.9-0.6,3.7-1.7,5.4c-1.1,1.7-2.6,3-4.4,3.9c-1.9,0.9-3.5,1-4.8,0.3
					c-1.3-0.7-1.9-2.3-1.9-4.6v-3.5c0-2.4,0.7-4.6,2.1-6.7C236.5,330.5,238.3,329,240.3,328z M239.4,336.7c-0.9,0.4-1.7,1-2.3,1.6
					c-0.6,0.6-1.1,1.3-1.5,2.1v1.5c0,1.7,0.4,2.8,1.1,3.4c0.8,0.6,1.7,0.6,2.9,0c1.1-0.5,1.9-1.3,2.5-2.5c0.6-1.1,0.9-2.4,0.9-3.6
					c0-1.2-0.3-2.1-1-2.5C241.5,336.1,240.6,336.2,239.4,336.7z"/>
			</g>
			<g>
				<path class="st17" d="M245.5,356.8c-2.4,3.8-4,6.9-4.8,9.3c-0.8,2.4-1.4,5.2-1.8,8.3l-0.2,2.1l-2.6,1.2l0.2-2.1
					c0.4-3.1,1.1-6,2.2-8.8c1.1-2.8,2.6-5.7,4.4-8.8l-10.6,5v-2l13.2-6.3V356.8z"/>
			</g>
			<g>
				<path class="st17" d="M280.1,169c0,1-0.3,1.9-0.9,2.9c-0.6,1-1.3,1.9-2.3,2.7c1.1-0.2,2,0,2.7,0.5c0.7,0.5,1,1.2,1,2.3
					c0,1.7-0.6,3.3-1.8,4.7c-1.2,1.5-2.7,2.6-4.6,3.5c-1.9,0.9-3.5,1.2-4.6,0.8c-1.2-0.3-1.8-1.4-1.8-3.1c0-1,0.3-2.1,1-3.2
					c0.7-1.1,1.6-2.1,2.7-3c-1,0.1-1.7-0.1-2.3-0.5c-0.6-0.5-0.8-1.2-0.8-2.1c0-1.6,0.5-3.1,1.6-4.5c1.1-1.4,2.5-2.5,4.2-3.3
					c1.7-0.8,3.1-1,4.2-0.7C279.5,166.4,280.1,167.3,280.1,169z M278,178.5c0-1-0.4-1.7-1.1-2c-0.7-0.3-1.6-0.2-2.7,0.3
					c-1.1,0.5-2,1.3-2.7,2.2c-0.7,1-1,2-1,3c0,1,0.3,1.7,1,2c0.7,0.3,1.6,0.1,2.7-0.4c1.1-0.5,2-1.2,2.7-2.2
					C277.6,180.5,278,179.5,278,178.5z M277.4,170.3c0-0.9-0.3-1.5-0.9-1.8c-0.6-0.3-1.4-0.3-2.3,0.2c-0.9,0.4-1.7,1.1-2.3,1.9
					c-0.6,0.9-0.9,1.8-0.9,2.7c0,0.9,0.3,1.5,0.9,1.8c0.6,0.3,1.4,0.2,2.3-0.2c0.9-0.4,1.7-1.1,2.3-1.9
					C277.1,172.1,277.4,171.2,277.4,170.3z"/>
			</g>
			<g>
				<path class="st17" d="M310.9,168l-2.6,1.3v-16l-4,1.9v-1.8l6.6-3.8V168z"/>
				<path class="st17" d="M326.3,142.1c0.7-0.3,1.3-0.6,2-0.7c0.7-0.2,1.2-0.2,1.6-0.2l-0.6,2.2c-0.4,0-0.9,0-1.4,0.1
					c-0.5,0.1-1,0.3-1.7,0.6c-1.4,0.7-2.5,1.7-3.4,3.2c-0.9,1.5-1.3,3-1.3,4.7l0,0.3c0.6-0.7,1.2-1.4,2-2c0.7-0.6,1.5-1.1,2.4-1.5
					c1.7-0.8,3.1-0.9,4.2-0.3c1,0.6,1.6,1.8,1.6,3.6c0,1.9-0.6,3.7-1.7,5.4c-1.1,1.7-2.6,3-4.4,3.9c-1.9,0.9-3.5,1-4.8,0.3
					c-1.3-0.7-1.9-2.3-1.9-4.6v-3.5c0-2.4,0.7-4.6,2.1-6.7C322.5,144.6,324.2,143,326.3,142.1z M325.4,150.8c-0.9,0.4-1.7,1-2.3,1.6
					c-0.6,0.6-1.1,1.3-1.4,2.1v1.5c0,1.7,0.4,2.8,1.1,3.4c0.8,0.6,1.7,0.6,2.9,0c1.1-0.5,1.9-1.3,2.5-2.5c0.6-1.1,0.9-2.4,0.9-3.6
					c0-1.2-0.3-2.1-1-2.5C327.4,150.2,326.5,150.2,325.4,150.8z"/>
			</g>
			<g>
				<path class="st17" d="M360.1,144.7l-12.7,6V149l6.4-9.7c1.1-1.7,1.9-3.1,2.3-4c0.4-0.9,0.6-1.7,0.6-2.5c0-0.9-0.3-1.6-0.9-1.9
					c-0.6-0.4-1.3-0.3-2.3,0.1c-1.4,0.6-2.4,1.4-3,2.4c-0.6,1-1,2-1,3.2l-2.5,1.2l0-0.1c0-1.6,0.5-3.2,1.7-4.8
					c1.2-1.6,2.8-2.9,4.8-3.9c1.8-0.8,3.2-1,4.2-0.5c1,0.5,1.6,1.4,1.6,2.9c0,1-0.3,2.2-0.9,3.5c-0.6,1.3-1.5,2.8-2.7,4.5l-5.1,7.7
					l0,0l9.4-4.4V144.7z"/>
				<path class="st17" d="M366.6,131.3l2.3-1.1c1.2-0.6,2-1.2,2.5-2c0.5-0.8,0.7-1.7,0.7-2.6c0-1-0.3-1.7-0.8-2
					c-0.6-0.3-1.4-0.2-2.5,0.3c-1,0.5-1.9,1.2-2.5,2c-0.6,0.9-0.9,1.8-0.9,2.7l-2.5,1.2l0-0.1c0-1.4,0.5-2.8,1.6-4.3
					c1.1-1.5,2.6-2.7,4.4-3.5c1.8-0.9,3.2-1.1,4.3-0.7c1.1,0.4,1.6,1.4,1.6,3.1c0,0.8-0.2,1.6-0.7,2.6c-0.5,1-1.2,1.9-2.2,2.8
					c1.2-0.2,2,0,2.5,0.5c0.5,0.5,0.7,1.3,0.7,2.3c0,1.7-0.6,3.3-1.8,4.8c-1.2,1.5-2.7,2.7-4.5,3.6c-1.8,0.8-3.3,1.1-4.4,0.7
					c-1.2-0.4-1.7-1.3-1.7-2.9l0-0.1l2.5-1.2c0,1,0.3,1.6,0.9,1.9c0.6,0.3,1.5,0.1,2.6-0.4c1.1-0.5,2-1.2,2.6-2.1c0.6-0.9,1-1.9,1-3
					c0-1.1-0.3-1.8-0.8-2.1c-0.6-0.3-1.5-0.1-2.7,0.5l-2.3,1.1V131.3z"/>
			</g>
			<g>
				<path class="st17" d="M394.6,118.1l2.3-1.1c1.2-0.6,2-1.2,2.5-2c0.5-0.8,0.7-1.7,0.7-2.6c0-1-0.3-1.7-0.8-2
					c-0.6-0.3-1.4-0.2-2.5,0.3c-1,0.5-1.9,1.2-2.5,2c-0.6,0.9-0.9,1.8-0.9,2.7l-2.5,1.2l0-0.1c0-1.4,0.5-2.8,1.6-4.3
					c1.1-1.5,2.6-2.7,4.4-3.5c1.8-0.9,3.2-1.1,4.3-0.7c1.1,0.4,1.6,1.4,1.6,3.1c0,0.8-0.2,1.6-0.7,2.6c-0.5,1-1.2,1.9-2.2,2.8
					c1.2-0.2,2,0,2.5,0.5c0.5,0.5,0.7,1.3,0.7,2.3c0,1.7-0.6,3.3-1.8,4.8c-1.2,1.5-2.7,2.7-4.5,3.6c-1.8,0.8-3.3,1.1-4.4,0.7
					c-1.2-0.4-1.7-1.3-1.7-2.9l0-0.1l2.5-1.2c0,1,0.3,1.6,0.9,1.9c0.6,0.3,1.5,0.1,2.6-0.4c1.1-0.5,2-1.2,2.6-2.1c0.6-0.9,1-1.9,1-3
					c0-1.1-0.3-1.8-0.8-2.1c-0.6-0.3-1.5-0.1-2.7,0.5l-2.3,1.1V118.1z"/>
				<path class="st17" d="M418.9,109.9c0,2.3-0.6,4.4-1.7,6.2c-1.1,1.8-2.6,3.1-4.5,4c-1.9,0.9-3.4,1-4.6,0.3
					c-1.1-0.7-1.7-2.3-1.7-4.6v-4.4c0-2.3,0.6-4.4,1.7-6.2c1.1-1.8,2.6-3.1,4.5-4c1.9-0.9,3.4-1,4.6-0.3c1.1,0.7,1.7,2.3,1.7,4.6
					V109.9z M416.2,106.3c0-1.6-0.3-2.6-0.9-3.2c-0.6-0.5-1.5-0.5-2.7,0.1c-1.2,0.5-2.1,1.4-2.7,2.5c-0.6,1.1-0.9,2.4-0.9,4v5.4
					c0,1.6,0.3,2.6,0.9,3.2c0.6,0.5,1.5,0.5,2.7,0c1.2-0.6,2-1.4,2.7-2.5c0.6-1.1,0.9-2.4,0.9-4V106.3z"/>
			</g>
			<g>
				<path class="st17" d="M394.6,145l2.3-1.1c1.2-0.6,2-1.2,2.5-2c0.5-0.8,0.7-1.7,0.7-2.6c0-1-0.3-1.7-0.8-2
					c-0.6-0.3-1.4-0.2-2.5,0.3c-1,0.5-1.9,1.2-2.5,2c-0.6,0.9-0.9,1.8-0.9,2.7l-2.5,1.2l0-0.1c0-1.4,0.5-2.8,1.6-4.3
					c1.1-1.5,2.6-2.7,4.4-3.5c1.8-0.9,3.3-1.1,4.3-0.7c1.1,0.4,1.6,1.4,1.6,3.1c0,0.8-0.2,1.6-0.7,2.6c-0.5,1-1.2,1.9-2.2,2.8
					c1.2-0.2,2,0,2.5,0.5c0.5,0.5,0.7,1.3,0.7,2.3c0,1.7-0.6,3.3-1.8,4.8c-1.2,1.5-2.7,2.7-4.5,3.6c-1.8,0.8-3.3,1.1-4.4,0.7
					c-1.2-0.4-1.7-1.3-1.7-2.9l0-0.1l2.5-1.2c0,1,0.3,1.6,0.9,1.9c0.6,0.3,1.5,0.1,2.6-0.4c1.1-0.5,2-1.2,2.6-2.1c0.6-0.9,1-1.9,1-3
					c0-1.1-0.3-1.8-0.8-2.1c-0.6-0.3-1.5-0.1-2.7,0.5l-2.3,1.1V145z"/>
				<path class="st17" d="M414.1,146.1l-2.6,1.2v-15.9l-4,1.9v-1.8l6.6-3.8V146.1z"/>
			</g>
			<g>
				<path class="st17" d="M360.1,173.8l-12.7,6V178l6.4-9.7c1.1-1.7,1.9-3.1,2.3-4c0.4-0.9,0.6-1.7,0.6-2.5c0-0.9-0.3-1.6-0.9-1.9
					c-0.6-0.4-1.3-0.3-2.3,0.1c-1.4,0.6-2.4,1.4-3,2.4c-0.6,1-1,2-1,3.2l-2.5,1.2l0-0.1c0-1.6,0.5-3.2,1.7-4.8
					c1.2-1.6,2.8-2.9,4.8-3.9c1.8-0.8,3.2-1,4.2-0.5c1,0.5,1.6,1.4,1.6,2.9c0,1-0.3,2.2-0.9,3.5c-0.6,1.3-1.5,2.8-2.7,4.5l-5.1,7.7
					l0,0.1l9.4-4.4V173.8z"/>
				<path class="st17" d="M373.5,161.3l2.7-1.3l0,2l-2.7,1.3v4.2l-2.6,1.2v-4.2l-8.8,4.2v-1.4l8.6-16.8l2.8-1.3V161.3z M364.9,165.3
					l6-2.8v-8.6l-0.1,0l-0.3,0.8L364.9,165.3z"/>
			</g>
			<g>
				<path class="st17" d="M360.1,202.8l-12.7,6v-1.7l6.4-9.7c1.1-1.7,1.9-3.1,2.3-4c0.4-0.9,0.6-1.7,0.6-2.5c0-0.9-0.3-1.6-0.9-1.9
					c-0.6-0.4-1.3-0.3-2.3,0.1c-1.4,0.6-2.4,1.4-3,2.4c-0.6,1-1,2-1,3.2l-2.5,1.2l0-0.1c0-1.6,0.5-3.1,1.7-4.8
					c1.2-1.6,2.8-2.9,4.8-3.9c1.8-0.8,3.2-1,4.2-0.5c1,0.5,1.6,1.5,1.6,2.9c0,1-0.3,2.1-0.9,3.5c-0.6,1.3-1.5,2.8-2.7,4.5l-5.1,7.7
					l0,0.1l9.4-4.4V202.8z"/>
				<path class="st17" d="M363.7,192.9l1.1-10.6l9.8-4.6v2.2l-7.5,3.6l-0.6,5.5c0.4-0.5,0.9-0.9,1.4-1.4c0.5-0.4,1.1-0.8,1.7-1.1
					c1.8-0.9,3.2-1,4.3-0.4c1,0.6,1.6,1.9,1.6,3.8c0,1.8-0.5,3.6-1.6,5.2c-1,1.6-2.6,2.9-4.6,3.9c-1.7,0.8-3,1-4.1,0.7
					c-1.1-0.3-1.6-1.3-1.6-3l0-0.1l2.4-1.1c0,1,0.3,1.6,0.9,1.9c0.6,0.3,1.4,0.2,2.4-0.3c1.1-0.5,2-1.3,2.6-2.3
					c0.6-1,0.9-2.2,0.9-3.5c0-1.2-0.3-2-0.9-2.5c-0.6-0.5-1.5-0.4-2.6,0.1c-1,0.5-1.8,1-2.3,1.5c-0.5,0.5-0.8,1.1-1,1.8L363.7,192.9
					z"/>
			</g>
			<g>
				<path class="st17" d="M360.1,231.9l-12.7,6v-1.7l6.4-9.7c1.1-1.7,1.9-3.1,2.3-4c0.4-0.9,0.6-1.7,0.6-2.5c0-0.9-0.3-1.6-0.9-1.9
					c-0.6-0.4-1.3-0.3-2.3,0.1c-1.4,0.6-2.4,1.4-3,2.4c-0.6,1-1,2-1,3.2l-2.5,1.2l0-0.1c0-1.6,0.5-3.2,1.7-4.8
					c1.2-1.6,2.8-2.9,4.8-3.9c1.8-0.8,3.2-1,4.2-0.5c1,0.5,1.6,1.5,1.6,2.9c0,1-0.3,2.2-0.9,3.5c-0.6,1.3-1.5,2.8-2.7,4.5l-5.1,7.7
					l0,0.1l9.4-4.4L360.1,231.9z"/>
				<path class="st17" d="M370.4,208.4c0.7-0.3,1.3-0.6,2-0.7c0.7-0.2,1.2-0.2,1.6-0.2l-0.6,2.2c-0.4,0-0.9,0-1.4,0.1
					c-0.5,0.1-1,0.3-1.7,0.6c-1.4,0.7-2.5,1.7-3.4,3.2c-0.9,1.5-1.3,3-1.3,4.7v0.3c0.6-0.7,1.2-1.4,2-2c0.7-0.6,1.5-1.1,2.4-1.5
					c1.7-0.8,3.1-0.9,4.2-0.3c1,0.6,1.6,1.8,1.6,3.6c0,1.9-0.5,3.7-1.7,5.4c-1.1,1.7-2.6,3-4.4,3.9c-1.9,0.9-3.5,1-4.8,0.3
					c-1.3-0.7-1.9-2.3-1.9-4.6v-3.5c0-2.4,0.7-4.6,2.1-6.7C366.6,210.9,368.3,209.4,370.4,208.4z M369.5,217.1
					c-0.9,0.4-1.7,1-2.3,1.6c-0.6,0.6-1.1,1.3-1.5,2.1v1.5c0,1.7,0.4,2.8,1.1,3.4c0.8,0.6,1.7,0.6,2.9,0c1.1-0.5,1.9-1.3,2.5-2.5
					c0.6-1.1,0.9-2.4,0.9-3.6c0-1.2-0.3-2-1-2.5C371.6,216.5,370.7,216.6,369.5,217.1z"/>
			</g>
			<g>
				<path class="st17" d="M360.1,261l-12.7,6v-1.7l6.4-9.7c1.1-1.7,1.9-3.1,2.3-4c0.4-0.9,0.6-1.7,0.6-2.5c0-0.9-0.3-1.6-0.9-1.9
					c-0.6-0.4-1.3-0.3-2.3,0.1c-1.4,0.6-2.4,1.4-3,2.4c-0.6,1-1,2-1,3.2l-2.5,1.2l0-0.1c0-1.6,0.5-3.2,1.7-4.8
					c1.2-1.6,2.8-2.9,4.8-3.9c1.8-0.8,3.2-1,4.2-0.5c1,0.5,1.6,1.4,1.6,2.9c0,1-0.3,2.2-0.9,3.5c-0.6,1.3-1.5,2.8-2.7,4.5l-5.1,7.7
					l0,0.1l9.4-4.4V261z"/>
				<path class="st17" d="M375.6,237.2c-2.4,3.8-4,6.9-4.8,9.3c-0.8,2.4-1.4,5.2-1.8,8.3l-0.2,2.1l-2.6,1.3l0.2-2.1
					c0.4-3.1,1.1-6,2.2-8.8c1.1-2.8,2.6-5.7,4.4-8.8l-10.6,5v-2l13.2-6.3V237.2z"/>
			</g>
			<g>
				<path class="st17" d="M360.1,290l-12.7,6v-1.7l6.4-9.7c1.1-1.7,1.9-3.1,2.3-4c0.4-0.9,0.6-1.7,0.6-2.5c0-0.9-0.3-1.6-0.9-1.9
					c-0.6-0.4-1.3-0.3-2.3,0.1c-1.3,0.6-2.3,1.4-3,2.4c-0.6,1-1,2-1,3.2l-2.5,1.2l0-0.1c0-1.6,0.5-3.2,1.7-4.8
					c1.2-1.6,2.8-2.9,4.8-3.9c1.8-0.8,3.2-1,4.2-0.5c1,0.5,1.6,1.4,1.6,2.9c0,1-0.3,2.1-0.9,3.4c-0.6,1.3-1.5,2.8-2.7,4.5l-5.1,7.7
					l0,0.1l9.4-4.4V290z"/>
				<path class="st17" d="M374.9,269.5c0,1-0.3,1.9-0.9,2.9c-0.6,1-1.3,1.9-2.3,2.7c1.1-0.2,2,0,2.7,0.5c0.7,0.5,1,1.2,1,2.3
					c0,1.7-0.6,3.3-1.8,4.7c-1.2,1.5-2.7,2.6-4.6,3.5c-1.9,0.9-3.5,1.2-4.6,0.8c-1.2-0.3-1.8-1.4-1.8-3.1c0-1,0.3-2.1,1-3.2
					c0.7-1.1,1.6-2.1,2.7-3c-1,0.1-1.7-0.1-2.3-0.5c-0.6-0.5-0.8-1.2-0.8-2.1c0-1.6,0.5-3.1,1.6-4.5c1.1-1.4,2.5-2.5,4.2-3.3
					c1.7-0.8,3.1-1,4.2-0.7C374.4,266.9,374.9,267.9,374.9,269.5z M372.8,279c0-1-0.4-1.7-1.1-2c-0.7-0.3-1.6-0.2-2.7,0.3
					c-1.1,0.5-2,1.3-2.7,2.2c-0.7,1-1,2-1,3c0,1,0.3,1.7,1,2c0.7,0.3,1.6,0.1,2.7-0.4c1.1-0.5,2-1.2,2.7-2.2
					C372.5,281,372.8,280,372.8,279z M372.3,270.8c0-0.9-0.3-1.5-0.9-1.8c-0.6-0.3-1.4-0.2-2.3,0.2c-0.9,0.4-1.7,1.1-2.3,1.9
					c-0.6,0.8-0.9,1.8-0.9,2.7c0,0.9,0.3,1.5,0.9,1.8c0.6,0.3,1.4,0.2,2.3-0.2c0.9-0.4,1.7-1.1,2.3-1.9
					C372,272.6,372.3,271.7,372.3,270.8z"/>
			</g>
			<g>
				<path class="st17" d="M360.1,319.1l-12.7,6v-1.7l6.4-9.7c1.1-1.7,1.9-3.1,2.3-4c0.4-0.9,0.6-1.7,0.6-2.5c0-0.9-0.3-1.6-0.9-1.9
					c-0.6-0.4-1.3-0.3-2.3,0.1c-1.4,0.6-2.4,1.4-3,2.4c-0.6,1-1,2-1,3.2l-2.5,1.2l0-0.1c0-1.6,0.5-3.2,1.7-4.8
					c1.2-1.6,2.8-2.9,4.8-3.9c1.8-0.8,3.2-1,4.2-0.5c1,0.5,1.6,1.4,1.6,2.9c0,1-0.3,2.1-0.9,3.5c-0.6,1.3-1.5,2.8-2.7,4.5l-5.1,7.7
					l0,0.1l9.4-4.4V319.1z"/>
				<path class="st17" d="M368.2,313.6c1.3-0.6,2.3-1.6,3.1-2.8c0.8-1.3,1.2-2.8,1.2-4.6v-0.8c-0.4,0.8-1,1.5-1.6,2.1
					c-0.7,0.6-1.4,1.1-2.2,1.5c-1.9,0.9-3.4,1.1-4.5,0.5c-1.1-0.6-1.7-1.8-1.7-3.7c0-1.8,0.6-3.6,1.8-5.4c1.2-1.7,2.6-3,4.3-3.8
					c2-1,3.7-1.1,4.8-0.5c1.2,0.6,1.8,2.1,1.8,4.5v4.4c0,2.4-0.6,4.5-1.9,6.4c-1.3,1.9-2.9,3.3-5,4.3c-0.7,0.3-1.4,0.6-2.1,0.8
					c-0.7,0.2-1.3,0.3-1.9,0.3l0.4-2.1c0.5,0,1.1-0.1,1.6-0.2C366.8,314.2,367.5,313.9,368.2,313.6z M368.6,307c1-0.5,1.8-1,2.4-1.7
					c0.6-0.7,1.1-1.4,1.4-2.2v-1.6c0-1.6-0.3-2.7-1-3.2c-0.7-0.5-1.6-0.5-2.9,0.1c-1,0.5-1.8,1.3-2.5,2.4c-0.7,1.1-1,2.3-1,3.6
					c0,1.3,0.3,2.1,0.9,2.6C366.7,307.5,367.5,307.5,368.6,307z"/>
			</g>
			<g>
				<path class="st17" d="M310.9,197l-2.6,1.3v-15.9l-4,1.9v-1.8l6.6-3.8V197z"/>
				<path class="st17" d="M331.5,170.9c-2.4,3.8-4,6.9-4.8,9.3c-0.8,2.4-1.4,5.2-1.8,8.3l-0.2,2.1l-2.6,1.3l0.2-2.1
					c0.4-3.1,1.1-6,2.2-8.8c1.1-2.8,2.6-5.7,4.4-8.8l-10.6,5v-2l13.2-6.3L331.5,170.9z"/>
			</g>
			<g>
				<path class="st17" d="M310.9,226.1l-2.6,1.2l0-15.9l-4,1.9v-1.8l6.6-3.8V226.1z"/>
				<path class="st17" d="M330.8,203.1c0,1-0.3,1.9-0.9,2.9c-0.6,1-1.3,1.9-2.3,2.7c1.1-0.2,2,0,2.7,0.5c0.7,0.5,1,1.2,1,2.3
					c0,1.7-0.6,3.3-1.8,4.7c-1.2,1.5-2.7,2.6-4.6,3.5c-1.9,0.9-3.5,1.2-4.6,0.8c-1.2-0.3-1.8-1.4-1.8-3.1c0-1,0.3-2.1,1-3.2
					c0.7-1.1,1.6-2.1,2.7-3c-1,0.1-1.7-0.1-2.3-0.5c-0.6-0.5-0.8-1.2-0.8-2.1c0-1.6,0.5-3.1,1.6-4.5c1.1-1.4,2.5-2.5,4.2-3.3
					c1.7-0.8,3.1-1,4.2-0.7C330.2,200.5,330.8,201.5,330.8,203.1z M328.7,212.7c0-1-0.4-1.7-1.1-2c-0.7-0.3-1.6-0.2-2.7,0.3
					c-1.1,0.5-2,1.3-2.7,2.2c-0.7,1-1,2-1,3c0,1,0.3,1.7,1,2c0.7,0.3,1.6,0.1,2.7-0.4c1.1-0.5,2-1.2,2.7-2.2
					C328.3,214.7,328.7,213.7,328.7,212.7z M328.1,204.4c0-0.9-0.3-1.5-0.9-1.8c-0.6-0.3-1.4-0.3-2.3,0.2c-0.9,0.4-1.7,1.1-2.3,1.9
					c-0.6,0.9-0.9,1.8-0.9,2.7c0,0.9,0.3,1.5,0.9,1.8c0.6,0.3,1.4,0.2,2.3-0.2c0.9-0.4,1.7-1.1,2.3-1.9
					C327.8,206.2,328.1,205.4,328.1,204.4z"/>
			</g>
			<g>
				<path class="st17" d="M310.9,255.2l-2.6,1.3l0-15.9l-4,1.9v-1.8l6.6-3.8V255.2z"/>
				<path class="st17" d="M324.1,247.2c1.3-0.6,2.3-1.6,3.1-2.8c0.8-1.3,1.2-2.8,1.2-4.6l0-0.8c-0.4,0.8-1,1.5-1.6,2.1
					c-0.7,0.6-1.4,1.1-2.2,1.5c-1.9,0.9-3.4,1.1-4.5,0.5c-1.1-0.6-1.7-1.8-1.7-3.7c0-1.8,0.6-3.6,1.8-5.4c1.2-1.7,2.6-3,4.3-3.8
					c2-1,3.7-1.1,4.8-0.5c1.2,0.6,1.8,2.1,1.8,4.5l0,4.4c0,2.4-0.6,4.5-1.9,6.4c-1.3,1.9-2.9,3.3-5,4.3c-0.7,0.3-1.4,0.6-2.1,0.8
					c-0.7,0.2-1.3,0.3-1.9,0.3l0.4-2.1c0.5,0,1.1-0.1,1.6-0.2C322.7,247.9,323.3,247.6,324.1,247.2z M324.5,240.6
					c1-0.5,1.8-1,2.4-1.7c0.7-0.7,1.1-1.4,1.4-2.2l0-1.6c0-1.6-0.3-2.7-1-3.2c-0.7-0.5-1.6-0.5-2.9,0.1c-1,0.5-1.8,1.3-2.5,2.4
					c-0.7,1.1-1,2.3-1,3.6c0,1.3,0.3,2.1,0.9,2.6C322.6,241.1,323.4,241.1,324.5,240.6z"/>
			</g>
			<g>
				<path class="st17" d="M316,281.8l-12.7,6v-1.7l6.4-9.7c1.1-1.7,1.9-3.1,2.3-4c0.4-0.9,0.6-1.7,0.6-2.5c0-0.9-0.3-1.6-0.8-1.9
					c-0.6-0.4-1.3-0.3-2.3,0.1c-1.4,0.6-2.3,1.4-3,2.4c-0.6,1-1,2-1,3.2l-2.5,1.2l0-0.1c0-1.6,0.5-3.2,1.7-4.8
					c1.2-1.6,2.8-2.9,4.8-3.9c1.8-0.8,3.2-1,4.2-0.5c1,0.5,1.6,1.4,1.6,2.9c0,1-0.3,2.2-0.9,3.5c-0.6,1.3-1.5,2.8-2.7,4.5l-5.1,7.7
					l0,0l9.4-4.4V281.8z"/>
				<path class="st17" d="M331.2,267.6c0,2.3-0.6,4.4-1.7,6.2c-1.1,1.8-2.6,3.1-4.5,4c-1.9,0.9-3.4,1-4.6,0.3
					c-1.1-0.7-1.7-2.3-1.7-4.6l0-4.4c0-2.3,0.6-4.4,1.7-6.2c1.1-1.8,2.6-3.1,4.5-4c1.9-0.9,3.4-1,4.6-0.3c1.1,0.7,1.7,2.3,1.7,4.6
					V267.6z M328.5,264c0-1.6-0.3-2.6-0.9-3.1c-0.6-0.5-1.5-0.5-2.7,0.1c-1.2,0.6-2.1,1.4-2.7,2.5c-0.6,1.1-0.9,2.4-0.9,4v5.4
					c0,1.6,0.3,2.6,0.9,3.2c0.6,0.5,1.5,0.5,2.7,0c1.2-0.6,2-1.4,2.7-2.5c0.6-1.1,0.9-2.4,0.9-4V264z"/>
			</g>
			<g>
				<path class="st17" d="M316,310.9l-12.7,6l0-1.7l6.4-9.7c1.1-1.7,1.9-3.1,2.3-4c0.4-0.9,0.6-1.7,0.6-2.5c0-0.9-0.3-1.6-0.9-1.9
					c-0.6-0.4-1.3-0.3-2.3,0.1c-1.4,0.6-2.3,1.4-3,2.4c-0.6,1-1,2-1,3.2l-2.5,1.2l0-0.1c0-1.6,0.5-3.2,1.7-4.8
					c1.2-1.6,2.8-2.9,4.8-3.9c1.8-0.8,3.2-1,4.2-0.5c1,0.5,1.6,1.5,1.6,2.9c0,1-0.3,2.2-0.9,3.5c-0.6,1.3-1.5,2.8-2.7,4.5l-5.1,7.7
					l0,0.1l9.4-4.4V310.9z"/>
				<path class="st17" d="M326.4,306l-2.6,1.3v-15.9l-4,1.9l0-1.8l6.7-3.8L326.4,306z"/>
			</g>
			<g>
				<path class="st17" d="M316,340l-12.7,6v-1.7l6.4-9.7c1.1-1.7,1.9-3.1,2.3-4c0.4-0.9,0.6-1.7,0.6-2.5c0-0.9-0.3-1.6-0.9-1.9
					c-0.6-0.4-1.3-0.3-2.3,0.1c-1.4,0.6-2.4,1.4-3,2.4c-0.6,1-1,2-1,3.2l-2.5,1.2l0-0.1c0-1.6,0.5-3.1,1.7-4.8
					c1.2-1.6,2.8-2.9,4.8-3.9c1.8-0.8,3.2-1,4.2-0.5c1,0.5,1.6,1.4,1.6,2.9c0,1-0.3,2.2-0.9,3.5c-0.6,1.3-1.5,2.8-2.7,4.5l-5.1,7.7
					l0,0.1l9.4-4.4V340z"/>
				<path class="st17" d="M331.5,332.6l-12.7,6v-1.7l6.4-9.7c1.1-1.7,1.9-3.1,2.3-4c0.4-0.9,0.6-1.7,0.6-2.5c0-0.9-0.3-1.6-0.9-1.9
					c-0.6-0.4-1.3-0.3-2.3,0.1c-1.4,0.6-2.4,1.4-3,2.4c-0.6,1-1,2-1,3.2l-2.5,1.2l0-0.1c0-1.6,0.5-3.2,1.7-4.8
					c1.2-1.6,2.8-2.9,4.8-3.9c1.8-0.8,3.2-1,4.2-0.5c1,0.5,1.6,1.5,1.6,2.9c0,1-0.3,2.2-0.9,3.5c-0.6,1.3-1.5,2.8-2.7,4.5l-5.1,7.7
					l0,0.1l9.4-4.4V332.6z"/>
			</g>
			<g>
				<path class="st17" d="M273.5,211c1.3-0.6,2.3-1.6,3.1-2.8c0.8-1.3,1.2-2.8,1.2-4.6v-0.8c-0.4,0.8-1,1.5-1.6,2.1
					c-0.7,0.6-1.4,1.1-2.2,1.5c-1.9,0.9-3.4,1.1-4.5,0.5c-1.1-0.6-1.7-1.8-1.7-3.8c0-1.8,0.6-3.6,1.8-5.4c1.2-1.7,2.6-3,4.3-3.8
					c2-1,3.6-1.1,4.8-0.5c1.2,0.6,1.8,2.1,1.8,4.5v4.4c0,2.4-0.6,4.5-1.9,6.4c-1.3,1.9-2.9,3.3-5,4.3c-0.7,0.3-1.4,0.6-2.1,0.8
					c-0.7,0.2-1.4,0.3-1.9,0.3l0.4-2.1c0.5,0,1.1-0.1,1.6-0.2C272.1,211.6,272.8,211.4,273.5,211z M274,204.4c1-0.5,1.8-1,2.4-1.7
					c0.7-0.7,1.1-1.4,1.4-2.2v-1.6c0-1.6-0.3-2.7-1-3.2c-0.7-0.5-1.6-0.5-2.9,0.1c-1,0.5-1.8,1.3-2.5,2.4c-0.7,1.1-1,2.3-1,3.6
					c0,1.3,0.3,2.1,0.9,2.6C272,204.9,272.9,204.9,274,204.4z"/>
			</g>
		</g>
		<path class="st18" d="M366.5,169.2c-12.8,6.1-23.2,20.7-23.2,32.7c0,12,10.4,16.9,23.2,10.8c12.8-6.1,23.2-20.7,23.2-32.7
			C389.7,168,379.3,163.2,366.5,169.2z M373.4,204.9c-9.7,8-20.6,8.3-24.4,0.6c-3.8-7.7,0.9-20.4,10.6-28.4c9.7-8,20.6-8.3,24.4-0.6
			C387.8,184.2,383.1,196.9,373.4,204.9z"/>
		<path class="st0" d="M213.4,144c0-2.4-2.1-3.4-4.6-2.2c-2.6,1.2-4.6,4.2-4.6,6.6c0,2.4,2.1,3.4,4.6,2.2
			C211.3,149.3,213.4,146.4,213.4,144z"/>
		<path class="st0" d="M450.9,29.5c0-2.4-2.1-3.4-4.6-2.2c-2.6,1.2-4.6,4.2-4.6,6.6c0,2.4,2.1,3.4,4.6,2.2
			C448.8,34.9,450.9,32,450.9,29.5z"/>
		<g>
			<path class="st14" d="M261.7,127.1l0.2,2.3c0.6-1.1,1.3-2.1,2.2-3c0.9-0.9,1.8-1.6,2.9-2.1c1.9-0.9,3.3-1,4.3-0.5
				c1,0.5,1.5,1.9,1.5,4V138l-3.1,1.5v-10.1c0-1.4-0.3-2.3-0.9-2.6c-0.6-0.3-1.5-0.2-2.7,0.4c-0.9,0.4-1.7,1-2.4,1.7
				c-0.7,0.7-1.2,1.6-1.7,2.5v11.8l-3.1,1.5v-16.2L261.7,127.1z"/>
			<path class="st14" d="M276.7,128c0-2.4,0.7-4.7,2.1-6.9c1.4-2.2,3.3-3.9,5.6-5c2.4-1.1,4.3-1.2,5.7-0.4c1.4,0.9,2.1,2.5,2.1,4.9
				v0.3c0,2.4-0.7,4.7-2.1,6.9c-1.4,2.2-3.3,3.8-5.6,5c-2.4,1.1-4.3,1.2-5.6,0.4c-1.4-0.9-2.1-2.5-2.1-4.9V128z M279.8,126.8
				c0,1.7,0.4,2.9,1.2,3.7c0.8,0.8,1.9,0.8,3.4,0.1c1.5-0.7,2.6-1.8,3.4-3.3c0.8-1.5,1.2-3.1,1.2-4.8v-0.3c0-1.7-0.4-2.9-1.2-3.7
				c-0.8-0.8-1.9-0.8-3.4-0.1c-1.5,0.7-2.6,1.8-3.4,3.3c-0.8,1.5-1.2,3.1-1.2,4.8V126.8z"/>
			<path class="st14" d="M301.4,119.8l0.3,1l0.1,0l0.3-1.3l4-13.3l3.2-1.5l-6.3,19.1l-2.4,1.1l-6.4-13.1l3.2-1.5L301.4,119.8z"/>
			<path class="st14" d="M319,116.6c-2.4,1.1-4.3,1.3-5.7,0.5c-1.4-0.8-2.1-2.4-2.1-4.8v-0.7c0-2.3,0.7-4.6,2.2-6.8
				c1.5-2.2,3.2-3.8,5.2-4.7c2.3-1.1,4.1-1.3,5.3-0.5c1.2,0.8,1.8,2.2,1.8,4.4v1.8l-11.2,5.3l0,0.1c0,1.5,0.4,2.6,1.3,3.2
				c0.8,0.6,1.9,0.6,3.4-0.1c1.1-0.5,2-1.1,2.8-1.7c0.8-0.7,1.5-1.4,2.1-2.2l1.2,1.3c-0.6,0.9-1.4,1.7-2.4,2.6
				C321.6,115.1,320.4,115.9,319,116.6z M318.5,102.3c-1.1,0.5-1.9,1.3-2.7,2.5c-0.7,1.2-1.2,2.4-1.4,3.8l0,0.1l7.9-3.7v-0.4
				c0-1.2-0.3-2-1-2.4C320.8,101.6,319.8,101.7,318.5,102.3z"/>
			<path class="st14" d="M331.8,94l0.2,2c0.6-1,1.3-2,2.1-2.8c0.9-0.8,1.9-1.5,3-2.1c1.1-0.5,2.1-0.8,2.9-0.6
				c0.8,0.1,1.4,0.6,1.9,1.4c0.5-1.2,1.3-2.2,2.1-3.2c0.9-1,1.9-1.7,3.1-2.3c1.7-0.8,3.1-0.9,4.2-0.3c1,0.6,1.5,2.1,1.5,4.4v9.7
				l-3.1,1.5V92c0-1.6-0.3-2.6-0.9-3c-0.6-0.4-1.5-0.3-2.6,0.2c-1.1,0.5-1.9,1.3-2.6,2.3c-0.7,1-1.1,2.1-1.2,3.2v0.1v10.3l-3.1,1.5
				v-9.7c0-1.5-0.3-2.5-0.9-2.9c-0.6-0.4-1.5-0.4-2.6,0.2c-1,0.5-1.7,1-2.4,1.7c-0.6,0.7-1.1,1.4-1.4,2.2v12l-3.1,1.5V95.3L331.8,94
				z"/>
			<path class="st14" d="M372.2,83.6c0,2.3-0.6,4.5-1.8,6.5c-1.2,2-2.8,3.5-4.9,4.5c-1.1,0.5-2.1,0.8-3,0.8c-0.8,0-1.5-0.3-2.1-0.8
				l-0.4,2.3l-2.6,1.2V74.7l3.1-1.5v9.1c0.5-1,1.2-1.8,2-2.6c0.8-0.8,1.7-1.4,2.8-1.9c2.1-1,3.8-1,5,0c1.2,1,1.8,2.8,1.8,5.4V83.6z
				 M369.1,84.8c0-1.8-0.4-3.2-1.1-4c-0.7-0.8-1.8-0.9-3.3-0.2c-1,0.5-1.8,1.1-2.4,1.8c-0.7,0.8-1.2,1.6-1.6,2.5v7
				c0.4,0.6,0.9,1,1.6,1.1c0.7,0.1,1.5,0,2.5-0.5c1.5-0.7,2.6-1.7,3.3-3s1.1-2.8,1.1-4.4V84.8z"/>
			<path class="st14" d="M383.1,86.2c-2.4,1.1-4.3,1.3-5.7,0.5c-1.4-0.8-2.1-2.4-2.1-4.8v-0.7c0-2.3,0.7-4.6,2.2-6.8
				c1.5-2.2,3.2-3.8,5.2-4.7c2.3-1.1,4.1-1.3,5.3-0.5c1.2,0.8,1.8,2.2,1.8,4.4v1.8l-11.2,5.3l0,0.1c0,1.5,0.4,2.6,1.3,3.2
				c0.8,0.6,1.9,0.6,3.4-0.1c1.1-0.5,2-1.1,2.8-1.7c0.8-0.7,1.5-1.4,2.1-2.2l1.2,1.3c-0.6,0.9-1.4,1.7-2.4,2.6
				C385.8,84.8,384.6,85.6,383.1,86.2z M382.7,72c-1,0.5-1.9,1.3-2.7,2.5c-0.7,1.2-1.2,2.4-1.4,3.8l0,0.1l7.9-3.7v-0.4
				c0-1.2-0.3-2-1-2.4C384.9,71.3,384,71.4,382.7,72z"/>
			<path class="st14" d="M401.4,63.7l-1.6,0.7c-0.8,0.4-1.5,0.9-2.1,1.5c-0.6,0.6-1,1.4-1.3,2.2v11.5l-3.1,1.5V65l2.8-1.3l0.3,2.2
				c0.5-1.1,1.1-2,1.8-2.8c0.7-0.8,1.5-1.4,2.5-1.9c0.2-0.1,0.5-0.2,0.7-0.3c0.2-0.1,0.4-0.1,0.5-0.1L401.4,63.7z"/>
		</g>
	</g>
	<g>
		<polygon class="st19" points="409.4,174.3 465.9,84.4 470.9,87.5 465.9,115.2 482.1,107.5 486.9,110.6 465.9,180.3 466.3,207.1 		
			"/>
		<polygon class="st20" points="414.6,177.3 470.8,87.4 470.8,118.2 487,110.5 487,175.6 470.8,183.3 470.8,214 		"/>
		<path class="st21" d="M465.1,163.1c-17.3,8.2-33.3,10.2-46,6.9l-4.5,7.3l56.2,36.7v-30.8l16.2-7.7l0-25.9
			C480.1,155,472.7,159.5,465.1,163.1z"/>
	</g>
</g>
</svg>
