<?xml version="1.0" encoding="utf-8"?>
<!-- Generator: Adobe Illustrator 24.0.2, SVG Export Plug-In . SVG Version: 6.00 Build 0)  -->
<svg version="1.1" id="Layer_1" xmlns="http://www.w3.org/2000/svg" xmlns:xlink="http://www.w3.org/1999/xlink" x="0px" y="0px"
	 viewBox="0 0 538 563" style="enable-background:new 0 0 538 563;" xml:space="preserve">
<style type="text/css">
	.st0{fill:#B7D5E2;}
	.st1{fill:#A7CAD6;}
	.st2{fill:#8FB4C1;}
	.st3{fill:#79A0AA;}
	.st4{fill:#DCF3FF;}
	.st5{fill:#E9F8FF;}
	.st6{fill:#EEFDFF;}
	.st7{fill:#597F87;}
	.st8{fill:#405B66;}
	.st9{fill:#FFFFD7;}
	.st10{fill:#9CE3E5;}
	.st11{fill:#82CECE;}
	.st12{opacity:0.6;fill:#BA906E;}
	.st13{fill:#72504F;}
	.st14{fill:#5E3E3E;}
	.st15{fill:#9E7A7A;}
	.st16{fill:#E5772C;}
	.st17{fill:#F48438;}
	.st18{fill:#FC9447;}
	.st19{fill:#EF7A3F;}
	.st20{fill:#6CC1B6;}
	.st21{fill:#ABEDE2;}
	.st22{fill:#C7FFF4;}
	.st23{fill:#F9D67D;}
	.st24{fill:#F2B368;}
	.st25{fill:#FFF0D2;}
	.st26{fill:#F4D6AB;}
	.st27{fill:#4CA9BF;}
	.st28{fill:#E5CE6C;}
	.st29{fill:#CCB65A;}
	.st30{fill:#6BC2DD;}
	.st31{fill:#81DAEF;}
	.st32{fill:#726E5F;}
	.st33{fill:#B2AB8D;}
	.st34{fill:#938D7C;}
	.st35{fill:#3E909E;}
	.st36{fill:#DB4970;}
	.st37{fill:#ED5887;}
	.st38{fill:#EF7F9D;}
	.st39{fill:#FF9CBB;}
	.st40{fill:#DBAA49;}
	.st41{fill:#FFF3AE;}
	.st42{fill:#F2BF64;}
	.st43{fill:#308A99;}
	.st44{fill:#5BAA9F;}
	.st45{fill:#9FEDE6;}
	.st46{fill:#ADA136;}
	.st47{fill:#E2D450;}
	.st48{fill:#FFEE73;}
	.st49{fill:#C6B642;}
	.st50{fill:#BA9797;}
	.st51{fill:#83DDF2;}
</style>
<g>
	<g>
		<path class="st0" d="M497.9,460c4.1-2.4,6.2-5.5,6.4-8.6c0.2-3.5,2.5-22.6-2-25.3L226.3,282.4c-8.6-5-22.5-5.1-31-0.1L41,353.6
			c-4.5,2.6-2.6,23.1-2.4,26.6c0.2,3.1,2.4,6.2,6.4,8.6l271.5,159.4c8.6,5,22.5,5.1,31,0.1L497.9,460z"/>
		<g>
			<path class="st1" d="M100.2,326.3L41,353.6c-4.5,2.6-2.6,23.1-2.4,26.6c0.2,3.1,2.4,6.2,6.4,8.6L117,431L100.2,326.3z"/>
			<path class="st1" d="M502.2,426.1L234,286.4l37.8,235.5l44.8,26.3c8.6,5,22.5,5.1,31,0.1L497.9,460c4.1-2.4,6.2-5.5,6.4-8.6
				C504.4,447.9,506.7,428.7,502.2,426.1z"/>
		</g>
		<path class="st2" d="M502.2,426.1l-181.3-94.4v218.5c8.4,3,19.4,2.4,26.7-1.9L497.9,460c4.1-2.4,6.2-5.5,6.4-8.6
			C504.4,447.9,506.7,428.7,502.2,426.1z"/>
		<g>
			<path class="st3" d="M320.9,485.1v65c8.4,3,19.4,2.4,26.7-1.9l5.7-3.3C339.6,528.3,328.6,507.9,320.9,485.1z"/>
		</g>
		<path class="st4" d="M497.9,439c8.5-5,8.5-13.2-0.1-18.2L226.3,261.4c-8.6-5-22.5-5.1-31-0.1L45,349.6c-8.5,5-8.5,13.2,0.1,18.2
			l271.5,159.4c8.6,5,22.5,5.1,31,0.1L497.9,439z"/>
		<g>
			<path class="st5" d="M155.3,284.8L45,349.6c-8.5,5-8.5,13.2,0.1,18.2l137.2,80.6L155.3,284.8z"/>
			<path class="st5" d="M497.8,420.8l-169.6-99.6l32.7,198.2l137-80.5C506.4,434,506.4,425.8,497.8,420.8z"/>
		</g>
		<path class="st6" d="M319,527.8L47.5,368.4c-8.6-5-8.6-13.2-0.1-18.2L197.8,262c6.1-3.6,15-4.6,22.7-3c-8.2-2.4-18.4-1.7-25.2,2.3
			L45,349.6c-8.5,5-8.5,13.2,0.1,18.2l271.5,159.4c2.4,1.4,5.3,2.4,8.3,3C322.7,529.6,320.7,528.9,319,527.8z"/>
		<polygon class="st7" points="125.6,315.8 156.4,297.6 159.8,299.6 129,317.8 		"/>
		<polygon class="st3" points="382.2,475.2 418.4,454 439.3,466.2 403.1,487.5 		"/>
		<polygon class="st4" points="387.2,474.5 417.1,456.9 434.4,467 404.4,484.6 		"/>
		<polygon class="st8" points="232.9,270.9 61.4,371.6 303.8,514.7 475.3,414 		"/>
		<polygon class="st9" points="233.5,273.3 65.3,372 303.1,512.4 471.3,413.6 		"/>
		<polygon class="st10" points="234.2,275.4 69,372.4 302.4,510.2 467.6,413.3 		"/>
		<polygon class="st11" points="123.4,366.9 123.4,404.5 302.4,510.2 428.6,436.2 428.6,417.9 		"/>
		<path class="st12" d="M321.5,487h94.7l81.7-48c4.4-2.6,6.5-5.9,6.4-9.3c0-0.8-0.2-1.6-0.5-2.4c0,0,0,0,0,0
			c-0.1-0.4-0.3-0.8-0.5-1.2c0,0,0-0.1-0.1-0.1c-0.2-0.4-0.4-0.7-0.7-1.1c-0.1-0.1-0.1-0.1-0.2-0.2c-0.2-0.3-0.5-0.6-0.7-0.9
			c-0.1-0.1-0.3-0.3-0.4-0.4c-0.2-0.2-0.4-0.5-0.7-0.7c-0.2-0.2-0.5-0.4-0.8-0.6c-0.2-0.1-0.3-0.3-0.5-0.4c-0.5-0.3-1-0.7-1.5-1
			L323.3,318.3h-1.8V487z"/>
		<path class="st7" d="M453.8,476.2c0-2.5-1.7-3.5-3.9-2.3l-31.6,18.5c-2,1.1-3.5,3.9-3.5,6.2c0,3,2.1,4.2,4.6,2.7l30.1-17.7
			C451.9,482.3,453.8,479,453.8,476.2z"/>
		<path class="st8" d="M447.3,479.6c0-1.9-1.3-2.7-3-1.7l-24,14c-1.5,0.9-2.7,3-2.7,4.7c0,2.2,1.5,3.1,3.5,2l22.9-13.4
			C445.9,484.2,447.3,481.7,447.3,479.6z"/>
		<path class="st7" d="M371.2,525.1c0-1.5-1-2.1-2.3-1.3c-1.3,0.7-2.3,2.6-2.3,4c0,1.5,1,2.1,2.3,1.3
			C370.2,528.4,371.2,526.6,371.2,525.1z"/>
		<path class="st7" d="M380.3,519.7c0-1.5-1-2.1-2.3-1.3c-1.3,0.7-2.3,2.6-2.3,4c0,1.5,1,2.1,2.3,1.3
			C379.3,523,380.3,521.2,380.3,519.7z"/>
		<path class="st7" d="M389.4,514.3c0-1.5-1-2.1-2.3-1.3c-1.3,0.7-2.3,2.6-2.3,4c0,1.5,1,2.1,2.3,1.3
			C388.4,517.6,389.4,515.8,389.4,514.3z"/>
		<path class="st7" d="M398.5,508.9c0-1.5-1-2.1-2.3-1.3c-1.3,0.7-2.3,2.6-2.3,4c0,1.5,1,2.1,2.3,1.3
			C397.5,512.2,398.5,510.4,398.5,508.9z"/>
		<path class="st7" d="M467,468.1c0-1.5-1-2.1-2.3-1.3c-1.3,0.7-2.3,2.6-2.3,4c0,1.5,1,2.1,2.3,1.3C466,471.4,467,469.6,467,468.1z"
			/>
		<path class="st7" d="M476.1,462.7c0-1.5-1-2.1-2.3-1.3c-1.3,0.7-2.3,2.6-2.3,4c0,1.5,1,2.1,2.3,1.3
			C475.1,466,476.1,464.2,476.1,462.7z"/>
		<path class="st7" d="M485.2,457.3c0-1.5-1-2.1-2.3-1.3c-1.3,0.7-2.3,2.6-2.3,4c0,1.5,1,2.1,2.3,1.3
			C484.2,460.6,485.2,458.8,485.2,457.3z"/>
		<path class="st7" d="M494.3,451.9c0-1.5-1-2.1-2.3-1.3c-1.3,0.7-2.3,2.6-2.3,4c0,1.5,1,2.1,2.3,1.3
			C493.3,455.2,494.3,453.4,494.3,451.9z"/>
	</g>
	<g>
		<polygon class="st13" points="229.2,309.4 123.4,371.5 322.7,488.5 428.5,426.4 		"/>
		<polygon class="st14" points="322.9,364.4 322.9,488.4 428.5,426.4 		"/>
		<polygon class="st15" points="229.2,304.8 123.4,366.9 322.7,483.9 428.5,421.8 		"/>
		<rect x="131.9" y="364.2" class="st13" width="50" height="9.3"/>
		<rect x="172.9" y="370" class="st13" width="50" height="22.3"/>
		<rect x="201.5" y="385.4" class="st13" width="50" height="22.3"/>
		<rect x="207.2" y="387" class="st13" width="50" height="22.3"/>
		<polygon class="st13" points="279.7,401.2 231.8,401.4 229.8,423.5 279.7,423.5 		"/>
		<rect x="251.5" y="413.7" class="st13" width="50" height="22.3"/>
		<rect x="265" y="417.9" class="st13" width="50" height="22.3"/>
		<polygon class="st13" points="323.5,428.3 277.5,428.7 273.6,450.5 323.5,450.5 		"/>
		<polygon class="st13" points="339.5,437.4 293.4,437.8 289.6,459.7 339.5,459.7 		"/>
		<polygon class="st13" points="427.3,423.3 425.7,419.9 394.2,400.8 321.3,452.4 317.4,474.3 340.5,474.3 		"/>
		<polygon class="st16" points="173.3,267.4 268.4,214 268.4,339.3 173.3,392.6 170.8,374.2 		"/>
		<polygon class="st17" points="235.7,247.1 178.2,280.8 178.2,381 235.7,347.3 		"/>
		<path class="st18" d="M173.2,267.3l-11.1-6.8v125.3c2.2,3.8,5.4,4.9,11.1,6.8V267.3z"/>
		<g>
			<path class="st19" d="M172,305.1v-25.8l-8.7-5.3V300C166.1,302.3,169,304.1,172,305.1z"/>
			<path class="st19" d="M163.3,343.8v28.3c1.7,3,4.3,3.9,8.7,5.3v-28.9C168.7,347.2,166,345.7,163.3,343.8z"/>
		</g>
		<polygon class="st20" points="201.1,282.3 296.2,229 296.2,354.2 201.1,407.6 		"/>
		<path class="st21" d="M201.4,282.3l-13.2-8.1v125.3c2.7,4.6,6.6,6.6,13.2,8.1V282.3z"/>
		<path class="st22" d="M198.9,393.2c-3.1-0.8-5.6-2.2-9.1-5.3l0,4.7c3.6,3.1,5.8,4.4,9.1,5.3L198.9,393.2z"/>
		<path class="st22" d="M198.9,384.6c-3.1-0.8-5.6-2.2-9.1-5.3l0,4.7c3.6,3.1,5.8,4.4,9.1,5.3L198.9,384.6z"/>
		<path class="st22" d="M198.9,376.1c-3.1-0.8-5.6-2.2-9.1-5.3l0,4.7c3.6,3.1,5.8,4.4,9.1,5.3L198.9,376.1z"/>
		<path class="st22" d="M198.9,364.2c-3.1-0.8-5.6-2.2-9.1-5.3l0,4.7c3.6,3.1,5.8,4.4,9.1,5.3L198.9,364.2z"/>
		<path class="st22" d="M198.9,322c-3.1-0.8-5.6-2.2-9.1-5.3l0,4.7c3.6,3.1,5.8,4.4,9.1,5.3L198.9,322z"/>
		<path class="st22" d="M198.9,313.4c-3.1-0.8-5.6-2.2-9.1-5.3l0,4.7c3.6,3.1,5.8,4.4,9.1,5.3L198.9,313.4z"/>
		<path class="st22" d="M198.9,304.9c-3.1-0.8-5.6-2.2-9.1-5.3l0,4.7c3.6,3.1,5.8,4.4,9.1,5.3L198.9,304.9z"/>
		<path class="st22" d="M198.9,293c-3.1-0.8-5.6-2.2-9.1-5.3l0,4.7c3.6,3.1,5.8,4.4,9.1,5.3L198.9,293z"/>
		<polygon class="st23" points="206.9,284.3 302,230.9 208.5,410.7 206.9,409.6 		"/>
		<polygon class="st24" points="208.4,285.2 303.5,231.8 303.5,357.1 208.4,410.4 		"/>
		<path class="st25" d="M212.4,293.8l89-57.5l-68.5,182c-5.9-8.4-11.4-11.2-20.7-13.7L212.4,293.8z"/>
		<polygon class="st26" points="250.6,332 250.6,371.2 301.4,236.2 212.4,293.8 212.3,309.6 		"/>
		<polygon class="st23" points="229.9,298.3 325,244.9 231.4,424.4 229.9,423.6 		"/>
		<polygon class="st24" points="231.2,299.1 326.3,245.8 326.3,371 231.2,424.4 		"/>
		<polygon class="st27" points="249.7,315.1 337.9,250.7 352.5,375.1 264.3,439.5 		"/>
		<polygon class="st28" points="272.5,323.7 368.4,271.4 273.7,450.4 272.5,449 		"/>
		<polygon class="st29" points="273.6,325.2 369.5,273 369.5,398.2 273.6,450.5 		"/>
		<path class="st25" d="M275.4,329l84.2-56.9l-68.2,183c-4.6-5.6-7.9-8.3-15.4-9.4L275.4,329z"/>
		<polygon class="st26" points="310.1,366.9 310.1,404.9 359.6,272.1 275.4,329 275.5,346.6 		"/>
		<path class="st30" d="M254.4,318.3l-14.2-6.9l11.1,124.3c3.1,3.9,6.4,5,13.2,3.9L254.4,318.3z"/>
		<path class="st31" d="M252.1,313.1l-10.8-5.6L252,428.2c2.6,3.3,4.2,4,10,3L252.1,313.1z"/>
		<polygon class="st28" points="289.4,334.1 384.5,280.7 291.4,459.3 289.4,459.4 		"/>
		<polygon class="st29" points="291.2,334.1 386.3,280.7 386.3,406 291.2,459.4 		"/>
		<polygon class="st32" points="304,363 398.9,310.2 398.9,412.9 307.7,461.1 		"/>
		<path class="st26" d="M306.1,367.9l91.2-48.6c1.7,3.2,3.9,5.9,10.4,6.2L306.7,459.2L306.1,367.9z"/>
		<polygon class="st25" points="314.6,363.1 306.1,367.9 306.7,459.2 350.8,383.5 		"/>
		<path class="st33" d="M318.6,372.4c-6.8-0.6-10.9-4-14.6-8.7v102.8c2.7,4,7.1,6.4,14.6,8.7V372.4z"/>
		<polygon class="st32" points="318.5,373 413.6,319.6 413.6,421.7 318.5,475.1 		"/>
		<polygon class="st34" points="402.6,336 335.6,375.5 335.7,386.4 402.7,346.9 		"/>
		<polygon class="st34" points="381,364.6 355.4,379.8 355.4,384 381,368.8 		"/>
		<polygon class="st34" points="385,387.4 359.4,402.6 359.4,437.5 385,422.3 		"/>
		<path class="st34" d="M410.2,328.4c0-1.6-1.1-2.2-2.5-1.4c-1.4,0.8-2.5,2.7-2.5,4.3c0,1.6,1.1,2.2,2.5,1.4
			C409.1,332,410.2,330,410.2,328.4z"/>
		<path class="st34" d="M410.2,416.8c0-1.6-1.1-2.2-2.5-1.4c-1.4,0.8-2.5,2.7-2.5,4.3c0,1.6,1.1,2.2,2.5,1.4
			C409.1,420.3,410.2,418.4,410.2,416.8z"/>
		<polygon class="st13" points="229.2,181.6 123.4,243.7 322.7,360.8 428.5,298.7 		"/>
		<polygon class="st14" points="322.9,236.7 322.9,360.6 428.5,298.7 		"/>
		<polygon class="st15" points="229.2,177.4 123.4,239.6 322.7,356.6 428.5,294.5 		"/>
		<polygon class="st13" points="423.4,297.7 424,291.8 384,267.4 321.8,316.9 316.9,340.8 349.6,340.8 		"/>
		<rect x="221.8" y="256.3" class="st13" width="41.8" height="29.6"/>
		<rect x="165" y="223.2" class="st13" width="41.8" height="29.6"/>
		<rect x="131.9" y="238" class="st13" width="50" height="7.8"/>
		<polygon class="st13" points="285.4,273.8 243.6,273.8 238.7,297.7 280.4,297.7 		"/>
		<polygon class="st13" points="326.5,297.2 284.7,297.2 279.8,321.1 321.6,321.1 		"/>
		<polygon class="st13" points="307.8,287.8 266,287.8 261.1,311.8 302.9,311.8 		"/>
		<rect x="200.9" y="245" class="st13" width="41.8" height="29.6"/>
		<polygon class="st27" points="153.4,130 239.4,89.1 232.3,198.3 146.3,239.2 		"/>
		<polygon class="st26" points="154.1,132.3 237.1,93.4 256.2,103.8 148,234.1 		"/>
		<path class="st25" d="M220.1,145.1c-21.3-4-40.1-10.8-53.4-18.7l-12.5,5.9L148,234.1l73.7-88.7
			C221.1,145.3,220.6,145.2,220.1,145.1z"/>
		<polygon class="st35" points="172.3,143.3 258.3,102.4 251.1,211.6 165.1,252.5 		"/>
		<polygon class="st36" points="177.9,136.5 273,83.1 273,208.4 177.9,261.8 		"/>
		<path class="st36" d="M177.9,136.5L273,83.1c0.2,49.3,0.9,112.6,0,125.3l-95.1,53.4V136.5z"/>
		<polygon class="st25" points="179.5,138.7 271.3,87.9 293.9,98.4 180.1,255.5 		"/>
		<path class="st26" d="M271.3,87.9l-86.5,47.9c0.5,0.1,1,0.2,1.5,0.3c11.7,2.7,20.7,7.3,20.1,10.4c-0.7,3-10.7,3.3-22.5,0.6
			c-1.5-0.4-3-0.7-4.4-1.1l0.6,109.6L293.9,98.4L271.3,87.9z"/>
		<path class="st30" d="M172.9,143.5c-9.6-1.7-15.2-5.6-19.8-13.5l-7.2,109.2c1.5,6.2,9.7,10.6,19.8,13.5L172.9,143.5z"/>
		<polygon class="st36" points="201.1,149.9 296.2,96.5 296.2,221.8 201.1,275.2 		"/>
		<path class="st37" d="M207.1,154.5l0,109.3l83-46.5l0-109.3L207.1,154.5z M287.9,215.5l-78.6,44.1V156.1l78.6-44.1V215.5z"/>
		<path class="st38" d="M201.4,149.9c-14.1-1.3-19.1-7.4-23.6-13.8v125.3c6.1,8.1,11.5,13.5,23.6,13.8V149.9z"/>
		<g>
			<path class="st39" d="M198.3,204.9v-41.2c-10.7-1-14.5-5.6-17.9-10.5l0,41.3C185.6,201.1,191.2,205.7,198.3,204.9z"/>
			<path class="st39" d="M180.4,226.2v22.1c4.6,6.1,8.7,10.3,17.9,10.5V236C191.8,236.1,186.2,232.5,180.4,226.2z"/>
		</g>
		<g>
			<polygon class="st24" points="207.2,177.5 302.3,124.1 302.3,223.7 207.2,277.1 			"/>
			<polygon class="st25" points="209.5,180.4 301.4,129.5 315.5,134.6 210.1,271.4 			"/>
			<path class="st26" d="M301.4,129.5L221,174c13.6,2.7,23.5,9.6,22.5,16.1c-1,6.9-13.9,10.7-28.7,8.4c-1.8-0.3-3.5-0.6-5.2-1
				l0.5,73.8l105.4-136.8L301.4,129.5z"/>
			<path class="st23" d="M221.9,185.9c-7-1.2-11.6-2.9-15.2-8.4v99.6c2.3,4.9,8.3,6.6,15.2,8.4l4-48.2L221.9,185.9z"/>
			<polygon class="st40" points="221.8,185.9 316.9,132.6 316.9,232.1 221.8,285.5 			"/>
			<path class="st41" d="M216.4,257.4c-3.6-0.7-5.9-1.8-8-4.7v20.7c1.7,3.1,4.4,4.2,8,4.7V257.4z"/>
			<path class="st41" d="M216.4,188.9c-3.6-0.7-5.9-1.8-8-4.7V205c1.7,3.1,4.4,4.2,8,4.7V188.9z"/>
			<path class="st42" d="M314,137.3l-89.2,50.1v93.4l89.2-50.1V137.3z M226.8,277.4v-89.1l85.1-47.7l0,89L226.8,277.4z"/>
			<path class="st42" d="M308.3,146.3l-78,43.8v81.6l78-43.8L308.3,146.3z M232.2,268.8V191l74.3-41.7l0,77.8L232.2,268.8z"/>
		</g>
		<path class="st27" d="M249.4,264c0-3.6-2.5-5.1-5.6-3.3c-3.1,1.8-5.6,6.2-5.6,9.9c0,3.6,2.5,5.1,5.6,3.3
			C246.8,272,249.4,267.6,249.4,264z"/>
		<path class="st27" d="M249.4,230.5c0-3.6-2.5-5.1-5.6-3.3c-3.1,1.8-5.6,6.2-5.6,9.9s2.5,5.1,5.6,3.3
			C246.8,238.5,249.4,234.1,249.4,230.5z"/>
		<path class="st27" d="M249.4,198c0-3.6-2.5-5.1-5.6-3.3c-3.1,1.8-5.6,6.2-5.6,9.9s2.5,5.1,5.6,3.3
			C246.8,206.1,249.4,201.7,249.4,198z"/>
		<polygon class="st27" points="237.3,170.6 332.5,117.2 238.6,297.7 236.3,296.1 		"/>
		<polygon class="st43" points="238.8,172.7 333.9,119.3 333.9,244.6 238.8,298 		"/>
		<path class="st25" d="M241.7,176.2l91.9-50.9l22.5,10.5l-92.6,171.6c-6.2-8.3-12.8-10.8-21.2-14.5L241.7,176.2z"/>
		<path class="st26" d="M247.2,174.7c13.2,0,24,35.1,24,78.4c0,19.3-2.1,36.9-5.7,50.6l90.6-167.8l-22.5-10.5l-91.9,50.9v0.6
			C243.5,175.4,245.3,174.7,247.2,174.7z"/>
		<polygon class="st27" points="259.1,185.1 355.2,131.5 261.5,311.7 259.1,310.4 		"/>
		<polygon class="st43" points="261.3,186.4 356.4,133 356.4,258.3 261.3,311.6 		"/>
		<polygon class="st36" points="266.2,188.3 361.3,134.9 361.3,260.2 266.2,313.6 		"/>
		<polygon class="st20" points="266.2,188.3 361.3,134.9 361.3,260.2 266.2,313.6 		"/>
		<polygon class="st25" points="267.8,190.5 359.6,139.6 382.2,150.1 268.4,307.2 		"/>
		<path class="st26" d="M359.6,139.6l-87,48.2c5.8,0.4,10.5,10.1,10.5,22c0,12.2-4.9,22-10.9,22c-1.5,0-2.9-0.6-4.2-1.7l0.4,77.1
			l113.8-157.1L359.6,139.6z"/>
		<polygon class="st20" points="280,197.2 363.9,151 363.9,276.3 279.5,320.8 		"/>
		<path class="st44" d="M284.2,201l-0.5,111.4l76-40.1l0-112.9L284.2,201z M357.9,270.5l-72.2,38.1l0.4-105.8l71.7-39.5L357.9,270.5
			z"/>
		<path class="st45" d="M280.3,196.9c-7,0.1-10.9-3.7-14.2-9.1v125.3c0.9,3.7,5.8,6.7,13.6,7.8L280.3,196.9z"/>
		<polygon class="st46" points="295.5,225.1 376.6,181.3 376.6,285 295.5,328.8 		"/>
		<path class="st25" d="M297.8,231.7l73-39.6c3.3,6.1,10.9,8.5,22.5,10.5l-94.9,120.6L297.8,231.7z"/>
		<path class="st26" d="M370.8,192.1l-61.5,33.4c13.4,5,22.9,12.5,21.4,16.9c-1.6,4.6-14.1,4.2-27.9-0.8c-1.7-0.6-3.4-1.3-4.9-2
			l0.6,83.5l94.9-120.6C381.7,200.6,374.2,198.2,370.8,192.1z"/>
		<path class="st47" d="M318.6,239.2c-10.9-1.4-17-6-23.6-13.8v103.5c6.6,8.9,11.7,12.6,23.6,13.8V239.2z"/>
		<g>
			<path class="st48" d="M315.6,281.5v-31.3c-8.4-1.1-13-4.6-18-10.6l0,31.3C303.3,277.6,307.8,280.2,315.6,281.5z"/>
			<path class="st48" d="M297.6,285.4v33.2c5.1,6.8,8.9,9.6,18,10.6V296C307.8,294.3,303,291.9,297.6,285.4z"/>
		</g>
		<polygon class="st46" points="318.5,239.7 396.2,195.8 396.2,298.8 318.5,342.7 		"/>
		<path class="st49" d="M391.9,204l-69,39v91.4l69-39L391.9,204z M324.7,331v-86.5l65.3-36.9V294L324.7,331z"/>
		<polygon class="st49" points="376.7,225.6 342,245.9 342,254 376.7,233.7 		"/>
		<rect x="320.3" y="195.7" class="st14" width="7" height="289.6"/>
		<rect x="127.1" y="91.9" class="st13" width="7" height="280.2"/>
		<rect x="421.5" y="146.4" class="st14" width="7" height="280.5"/>
		<polygon class="st13" points="123.5,85.2 123.4,92 322.7,209 428.5,146.9 428.2,139.7 		"/>
		<polygon class="st14" points="428.2,139.7 321.3,120.6 321.3,208.2 322.7,209 428.5,146.9 		"/>
		<polygon class="st14" points="424.8,148.9 421.8,146.9 322.6,355.7 325.6,357.6 		"/>
		<polygon class="st14" points="324.2,208.8 326.3,205.7 427.6,296.1 425.3,298.4 		"/>
		<polygon class="st14" points="424.8,302.6 421.8,300.8 324,483.4 327,485.2 		"/>
		<polygon class="st14" points="324.2,354 326.3,351.1 427.6,425.1 425.3,427.2 		"/>
		<polygon class="st15" points="323.2,200.8 317.1,197.2 317.1,485.1 323.2,488.6 		"/>
		<polygon class="st15" points="128.7,87.6 122.6,84 122.6,371.8 128.7,375.4 		"/>
		<polygon class="st15" points="228.1,22 122.3,84.1 322.7,201.9 428.5,139.8 		"/>
		<polygon class="st50" points="229.4,27.3 132.8,84 321.7,196.7 418.3,137.4 		"/>
		<polygon class="st26" points="283.6,447.8 283.8,396.4 286.3,450.1 		"/>
		<polygon class="st26" points="280.1,343.7 279.9,395.2 277.5,341.4 		"/>
		<polygon class="st26" points="215.7,308.3 215.4,359.8 213,306.1 		"/>
		<polygon class="st26" points="258.6,180.9 258.4,232.4 256,178.6 		"/>
		<polygon class="st26" points="227.3,312.5 227.1,352.7 224.7,310.2 		"/>
		<polygon class="st26" points="219.9,407 221,369.3 223.4,408.9 		"/>
		<polygon class="st26" points="247.6,295 248.4,224 251.1,296.9 		"/>
		<path class="st51" d="M164,240.3c-5.1-1.5-8.9-4.1-14.5-9.4l-0.3,7.7c5.6,5.3,9.2,7.7,14.5,9.4L164,240.3z"/>
		<path class="st51" d="M164.6,226.4c-5.1-1.5-8.9-4-14.5-9.3l-0.3,7.7c5.6,5.3,9.2,7.7,14.5,9.3L164.6,226.4z"/>
		<path class="st51" d="M165.2,212.4c-5.1-1.5-8.9-4.1-14.5-9.4l-0.3,7.7c5.6,5.3,9.2,7.7,14.5,9.4L165.2,212.4z"/>
		<path class="st51" d="M166,193c-5.1-1.5-8.9-4.1-14.5-9.3l-0.3,7.7c5.6,5.3,9.2,7.7,14.5,9.3L166,193z"/>
		<path class="st51" d="M169.8,148c-5.1-1.5-8.9-4.1-14.5-9.3l-0.3,7.7c5.6,5.3,9.2,7.7,14.5,9.3L169.8,148z"/>
		<polygon class="st15" points="128.8,82.8 130.9,85.9 418.8,138.9 416.7,135.8 		"/>
		<polygon class="st15" points="231.4,26.2 226.2,24.8 319.8,198 325.1,199.5 		"/>
	</g>
</g>
</svg>
